<?xml version="1.0" encoding="UTF-8" standalone="no"?>
<svg
   viewBox="0 0 20 20"
   version="1.1"
   id="svg6823"
   sodipodi:docname="cyber.svg"
   inkscape:version="1.1.1 (3bf5ae0d25, 2021-09-20)"
   xmlns:inkscape="http://www.inkscape.org/namespaces/inkscape"
   xmlns:sodipodi="http://sodipodi.sourceforge.net/DTD/sodipodi-0.dtd"
   xmlns="http://www.w3.org/2000/svg"
   xmlns:svg="http://www.w3.org/2000/svg">
  <defs
     id="defs6827" />
  <sodipodi:namedview
     id="namedview6825"
     pagecolor="#ffffff"
     bordercolor="#666666"
     borderopacity="1.0"
     inkscape:pageshadow="2"
     inkscape:pageopacity="0.0"
     inkscape:pagecheckerboard="0"
     showgrid="false"
     inkscape:zoom="64"
     inkscape:cx="15.648437"
     inkscape:cy="2.3046875"
     inkscape:window-width="1920"
     inkscape:window-height="1017"
     inkscape:window-x="1912"
     inkscape:window-y="-8"
     inkscape:window-maximized="1"
     inkscape:current-layer="svg6823" />
  <path
     d="M15.3 14.89l2.77 2.77a1 1 0 0 1 0 1.41 1 1 0 0 1-1.41 0l-2.59-2.58A5.99 5.99 0 0 1 11 18V9.04a1 1 0 0 0-2 0V18a5.98 5.98 0 0 1-3.07-1.51l-2.59 2.58a1 1 0 0 1-1.41 0 1 1 0 0 1 0-1.41l2.77-2.77A5.95 5.95 0 0 1 4.07 13H1a1 1 0 1 1 0-2h3V8.41L.93 5.34a1 1 0 0 1 0-1.41 1 1 0 0 1 1.41 0l2.1 2.1h11.12l2.1-2.1a1 1 0 0 1 1.41 0 1 1 0 0 1 0 1.41L16 8.41V11h3a1 1 0 1 1 0 2h-3.07c-.1.67-.32 1.31-.63 1.89zM15 5H5a5 5 0 1 1 10 0z"
     id="path6821" />
  <path
     style="fill:#0de5a8;stroke-width:9.61539e-05"
     d="M 5.0120192,4.8130714 C 5.0120192,4.0876353 5.2948347,3.1257983 5.7104658,2.4377 6.5389948,1.0660282 7.948351,0.18056336 9.5518257,0.02426543 10.19629,-0.03855339 10.92221,0.04383321 11.5625,0.25246212 c 0.327132,0.10659127 0.913418,0.39215548 1.202967,0.58593425 0.771363,0.51622763 1.406076,1.26173793 1.783044,2.09429593 0.262285,0.5792752 0.43947,1.3374012 0.43947,1.8803791 V 5 H 10 5.0120192 Z"
     id="path6866" />
  <path
     style="fill:#0de5a8;stroke-width:9.61539e-05"
     d="M 2.3557692,19.31861 C 2.0723698,19.224757 1.8579714,19.038551 1.7354119,18.779826 1.6641785,18.629451 1.6586709,18.599622 1.6588904,18.365385 1.659311,17.916428 1.567545,18.032958 3.2499849,16.344921 L 4.7007185,14.889362 4.5699889,14.614152 C 4.3644353,14.181424 4.1696272,13.567495 4.0879264,13.094952 l -0.015586,-0.09014 -1.5433817,-1.45e-4 C 1.6343285,13.004588 0.92495036,12.994613 0.84134615,12.980939 0.52489005,12.92918 0.24040344,12.712388 0.09186333,12.4098 0.02994004,12.283657 0.02403846,12.248627 0.02403846,12.007212 c 0,-0.247502 0.0049121,-0.274793 0.07675801,-0.426461 0.0993464,-0.209722 0.27263678,-0.383012 0.48235853,-0.482358 l 0.16203731,-0.07676 1.62860579,-0.0067 1.6286057,-0.0067 V 9.7052911 8.4022599 L 2.3955928,6.7912743 C 0.64401454,5.0351453 0.71633865,5.1188899 0.65614298,4.7771535 0.58438375,4.3697697 0.82311226,3.9251112 1.2127053,3.740494 1.3591829,3.671082 1.3886772,3.665865 1.6346154,3.665865 c 0.453485,0 0.3831181,-0.052056 1.6955199,1.2543238 l 1.1185969,1.1134646 h 5.5512596 5.5512592 l 1.106662,-1.1042553 c 1.028747,-1.0265099 1.118503,-1.1098624 1.274855,-1.1838942 0.158691,-0.075139 0.183133,-0.079639 0.432617,-0.079639 0.246025,0 0.275397,0.0052 0.422157,0.074744 0.39066,0.1851192 0.628297,0.6278926 0.556315,1.0365437 -0.0602,0.3417364 0.01213,0.2579918 -1.73945,2.0141208 L 15.997596,8.402259 v 1.3030312 1.3030308 l 1.628606,0.0067 1.628606,0.0067 0.162037,0.07676 c 0.209722,0.09935 0.383012,0.272636 0.482359,0.482358 0.07185,0.151668 0.07676,0.178959 0.07676,0.426461 0,0.241415 -0.0059,0.276445 -0.06782,0.402588 -0.14854,0.302588 -0.433027,0.51938 -0.749483,0.571139 -0.0836,0.01367 -0.792983,0.02365 -1.687613,0.02373 l -1.543382,1.44e-4 -0.01529,0.09014 c -0.08744,0.515528 -0.292318,1.148192 -0.5157,1.592477 l -0.100143,0.199175 1.452111,1.456938 c 1.683997,1.689596 1.592051,1.572859 1.592472,2.021843 2.16e-4,0.234237 -0.0053,0.264066 -0.07652,0.414441 -0.09935,0.209722 -0.272637,0.383012 -0.482358,0.482358 -0.150213,0.07115 -0.180456,0.07675 -0.414442,0.07675 -0.444435,0 -0.343926,0.07799 -1.928136,-1.496096 l -1.363233,-1.354519 -0.235325,0.195002 c -0.755469,0.62602 -1.65092,1.065487 -2.560804,1.256784 l -0.28221,0.05933 -0.0063,-4.606694 -0.0063,-4.6066942 -0.07713,-0.1628325 C 10.763688,8.3176192 10.490701,8.1114558 10.152906,8.0526315 9.7282988,7.9786892 9.2836151,8.2177555 9.0915531,8.6232252 l -0.07713,0.1628325 -0.00625,4.6062143 -0.00625,4.606215 -0.2205198,-0.04523 C 7.8408154,17.760334 6.9138291,17.311706 6.1591065,16.684163 l -0.235124,-0.195504 -1.3634337,1.354296 c -1.2675714,1.259075 -1.3744192,1.359181 -1.5196834,1.423785 -0.1275457,0.05673 -0.1959945,0.0708 -0.3725962,0.0766 -0.134067,0.0044 -0.2529146,-0.005 -0.3125,-0.02473 z"
     id="path6905" />
  <path
     style="fill:#0de5a8;stroke-width:1.5625e-05"
     d="m 15.998717,8.4055426 c 7.06e-4,-0.00361 0.51113,-0.5177719 1.134275,-1.1425781 1.260629,-1.2639874 1.512703,-1.5179886 1.695524,-1.7084826 0.282512,-0.2943707 0.384694,-0.4156919 0.445522,-0.5289678 0.02252,-0.041937 0.02145,-0.032181 -0.0022,0.020034 -0.03549,0.078356 -0.07647,0.145317 -0.132302,0.2161704 -0.03309,0.041993 -3.142973,3.1548493 -3.14082,3.1438239 z"
     id="path6944" />
  <path
     style="fill:#0de5a8;stroke-width:1.5625e-05"
     d="M 12.501953,6.7558594 V 6.0273437 h 1.527417 1.527417 l 0.918301,-0.9169921 c 0.505066,-0.5043457 0.919591,-0.9169922 0.921167,-0.9169922 0.0016,0 0.04314,-0.038826 0.09237,-0.086279 0.254079,-0.244929 0.325192,-0.3024757 0.448877,-0.3632446 0.135234,-0.066443 0.174113,-0.074807 0.364445,-0.078403 0.133179,-0.00252 0.268071,0.00269 0.316346,0.012209 0.01565,0.00309 0.03131,0.00451 0.03482,0.00316 0.0036,-0.00139 0.0054,-8.235e-4 0.0041,0.0013 -0.0013,0.00206 0.01291,0.00891 0.03151,0.015224 0.0469,0.015925 0.162443,0.073936 0.211712,0.1062986 0.217502,0.1428671 0.37944,0.3767805 0.43468,0.6278787 0.0052,0.023557 0.01045,0.040256 0.0117,0.037109 0.0013,-0.00315 0.0015,0.00307 5.33e-4,0.01381 -0.0013,0.01459 -7.72e-4,0.017555 0.0021,0.011719 0.0028,-0.00567 0.0033,-0.00191 0.0017,0.013672 -0.0016,0.015967 -10e-4,0.01998 0.0021,0.015625 0.0031,-0.00431 0.0037,0.00188 0.0022,0.023437 -0.0011,0.016113 -6.8e-4,0.026286 9.69e-4,0.022607 0.0016,-0.00368 0.003,0.026203 0.003,0.066406 0,0.040203 -9.39e-4,0.066944 -0.0021,0.059425 -0.0015,-0.010128 -0.0028,-0.00507 -0.0049,0.019531 -0.0015,0.018262 -0.008,0.063479 -0.01443,0.1004834 -0.0064,0.037004 -0.01052,0.070251 -0.0091,0.073883 0.0018,0.0048 0.0011,0.00573 -0.0026,0.00343 -0.004,-0.00246 -0.0045,-7.625e-4 -0.0025,0.0075 0.002,0.00784 0.0014,0.0099 -0.002,0.00775 -0.0032,-0.002 -0.004,-9.043e-4 -0.0023,0.00346 0.0021,0.00537 -0.0061,0.035855 -0.01545,0.057402 -0.0014,0.00322 -0.0023,0.00718 -0.0019,0.00879 3.4e-4,0.00161 -0.0011,0.00293 -0.0032,0.00293 -0.0021,0 -0.0028,0.00264 -0.0015,0.00586 0.0012,0.00322 6.76e-4,0.00586 -0.0012,0.00586 -0.0019,0 -0.0037,0.00308 -0.004,0.00684 -8.31e-4,0.010591 -0.0269,0.069355 -0.04847,0.1092534 -0.02208,0.040844 -0.05845,0.097316 -0.08499,0.1319576 -0.0099,0.012891 -0.125206,0.131264 -0.256289,0.2630521 -0.131083,0.131788 -0.237674,0.2405519 -0.236869,0.2416975 8.04e-4,0.00115 -0.389428,0.3929773 -0.867185,0.870737 l -0.868647,0.868654 h -2.21387 -2.213871 z"
     id="path6983" />
  <path
     style="fill:#0de5a8;stroke-width:1.5625e-05"
     d="m 18.064453,3.6859141 c 0,-0.00305 0.115621,-0.029407 0.15625,-0.035614 0.02256,-0.00345 0.07288,-0.00728 0.111819,-0.00851 0.09772,-0.0031 0.176773,0.00474 0.270671,0.026849 0.0397,0.00935 0.04318,0.013811 0.0058,0.00737 -0.01266,-0.00218 -0.07092,-0.00607 -0.12947,-0.00865 -0.135869,-0.00599 -0.313949,-1.642e-4 -0.37206,0.012165 -0.0394,0.00836 -0.04297,0.00889 -0.04297,0.00639 z"
     id="path7022" />
  <path
     style="fill:#0de5a8;stroke-width:1.5625e-05"
     d="m 5.2441406,3.4829052 c 0,-8.084e-4 0.013327,-0.040799 0.029615,-0.088867 0.07386,-0.2179727 0.1539871,-0.4139105 0.2514542,-0.6148901 0.022962,-0.047347 0.041039,-0.088216 0.040171,-0.090818 -8.675e-4,-0.0026 0.0012,-0.0058 0.00458,-0.0071 0.00339,-0.0013 0.00519,-0.00394 0.004,-0.00586 -0.00119,-0.00192 -1.96e-4,-0.0035 0.00221,-0.0035 0.0024,0 0.00328,-0.00176 0.00195,-0.00391 -0.00133,-0.00215 -4.489e-4,-0.00391 0.00195,-0.00391 0.0024,0 0.00328,-0.00176 0.00195,-0.00391 -0.00133,-0.00215 -5.883e-4,-0.00391 0.00164,-0.00391 0.00506,0 0.020397,-0.029392 0.01707,-0.032719 -0.00134,-0.00134 -2.823e-4,-0.00244 0.00235,-0.00244 0.00263,0 0.0037,-0.00176 0.00237,-0.00391 -0.00133,-0.00215 -4.489e-4,-0.00391 0.00195,-0.00391 0.0024,0 0.00328,-0.00176 0.00195,-0.00391 -0.00133,-0.00215 -2.597e-4,-0.00391 0.00237,-0.00391 0.00263,0 0.00376,-0.00103 0.00251,-0.00228 -0.00125,-0.00125 0.00115,-0.00571 0.00535,-0.00991 0.0042,-0.0042 0.00658,-0.00932 0.0053,-0.011393 -0.00128,-0.00207 -3.608e-4,-0.00376 0.00204,-0.00376 0.0024,0 0.00328,-0.00176 0.00195,-0.00391 -0.00133,-0.00215 -2.597e-4,-0.00391 0.00237,-0.00391 0.00263,0 0.00376,-0.00103 0.00251,-0.00228 -0.00125,-0.00125 0.00115,-0.00571 0.00535,-0.00991 0.0042,-0.0042 0.00658,-0.00932 0.0053,-0.011393 -0.00128,-0.00207 -3.609e-4,-0.00376 0.00204,-0.00376 0.0024,0 0.00328,-0.00176 0.00195,-0.00391 -0.00133,-0.00215 -4.489e-4,-0.00391 0.00195,-0.00391 0.0024,0 0.00339,-0.00157 0.00221,-0.0035 -0.00119,-0.00192 5.768e-4,-0.00455 0.00392,-0.00583 0.00335,-0.00128 0.00499,-0.00411 0.00365,-0.00627 -0.00134,-0.00216 -4.66e-4,-0.00393 0.00194,-0.00393 0.0024,0 0.00328,-0.00176 0.00195,-0.00391 -0.00133,-0.00215 -4.489e-4,-0.00391 0.00195,-0.00391 0.0024,0 0.00339,-0.00157 0.00221,-0.0035 -0.00119,-0.00192 5.768e-4,-0.00455 0.00392,-0.00583 0.00335,-0.00128 0.00499,-0.00411 0.00365,-0.00627 -0.00134,-0.00216 -4.66e-4,-0.00393 0.00194,-0.00393 0.0024,0 0.00339,-0.00157 0.00221,-0.0035 -0.00119,-0.00192 5.768e-4,-0.00455 0.00392,-0.00583 0.00335,-0.00128 0.00499,-0.00411 0.00365,-0.00627 -0.00134,-0.00216 -2.766e-4,-0.00393 0.00236,-0.00393 0.00263,0 0.00364,-0.00114 0.00224,-0.00254 -0.0014,-0.0014 -3.12e-5,-0.00448 0.00304,-0.00684 0.00307,-0.00236 0.00612,-0.00692 0.00678,-0.010138 6.552e-4,-0.00321 0.00329,-0.00761 0.00586,-0.00977 0.00257,-0.00216 0.0052,-0.00655 0.00586,-0.00977 6.552e-4,-0.00321 0.00329,-0.00761 0.00586,-0.00977 0.00257,-0.00216 0.0052,-0.00641 0.00586,-0.00945 6.552e-4,-0.00304 0.00433,-0.00882 0.00817,-0.012838 0.00384,-0.00402 0.00605,-0.00881 0.00491,-0.010658 -0.00114,-0.00184 6.648e-4,-0.00441 0.00401,-0.00569 0.00335,-0.00128 0.00499,-0.00411 0.00365,-0.00627 -0.00134,-0.00216 -7.719e-4,-0.00393 0.00126,-0.00393 0.00457,0 0.017607,-0.019437 0.017607,-0.026247 0,-0.00275 0.00126,-0.005 0.00281,-0.005 0.00338,0 0.014807,-0.016903 0.016306,-0.02412 5.884e-4,-0.00283 0.00306,-0.00691 0.0055,-0.00907 0.00244,-0.00216 0.022508,-0.031166 0.044603,-0.064467 0.022095,-0.033301 0.062128,-0.091309 0.088963,-0.1289062 C 6.489665,1.319571 7.2620217,0.71487039 8.1660156,0.35727888 8.5021102,0.22433046 8.8519978,0.12752483 9.2089844,0.06871405 9.2987348,0.05392834 9.4314355,0.03540811 9.4522219,0.03476688 c 0.012055,-3.7189e-4 0.012183,-5.3456e-4 0.00286,-0.0036215 -0.0063,-0.0020864 -7.03e-5,-0.0026636 0.017578,-0.0016285 0.019413,0.0011385 0.024511,5.721e-4 0.017578,-0.0019531 -0.00688,-0.0025059 -0.00169,-0.003046 0.017578,-0.0018279 0.019725,0.0012472 0.025167,6.5164e-4 0.019531,-0.0021371 -0.00557,-0.0027565 5.957e-4,-0.0033228 0.021484,-0.0019732 0.020795,0.0013436 0.02703,7.7682e-4 0.021484,-0.0019531 -0.0055,-0.0027075 8.598e-4,-0.0032127 0.021484,-0.0017065 0.022138,0.0016167 0.027865,0.0010695 0.023437,-0.0022393 -0.00441,-0.0032964 0.00186,-0.0037864 0.025391,-0.0019822 0.023566,0.0018073 0.029809,0.0013174 0.025391,-0.0019924 -0.0044,-0.00329405 0.00328,-0.00373212 0.030785,-0.00175599 0.027755,0.00199422 0.035952,0.00151226 0.03379,-0.00198659 -0.00217,-0.00351024 0.00873,-0.00401804 0.045386,-0.00211458 0.026533,0.00137775 0.046213,0.00105446 0.043732,-7.1844e-4 -0.00248,-0.00177289 0.079258,-0.00322343 0.1816411,-0.00322343 0.102382,0 0.17824,0.00120126 0.168572,0.00266947 -0.0097,0.00146822 0.0097,0.00215387 0.04297,0.00152367 0.03757,-7.1104e-4 0.05462,4.028e-5 0.04492,0.0019801 -0.01011,0.00202292 0.0016,0.00268569 0.0332,0.00187833 0.03249,-8.3003e-4 0.0436,-1.744e-4 0.0332,0.0019589 -0.01078,0.002212 -0.0023,0.0028275 0.02734,0.0019846 0.02845,-8.0912e-4 0.03835,-1.3606e-4 0.0293,0.0019924 -0.0094,0.0022183 -0.0028,0.0027957 0.02149,0.0018633 0.02152,-8.2696e-4 0.03061,-1.757e-4 0.02344,0.0016791 -0.01135,0.0029336 -0.01122,0.0030448 0.0039,0.003493 0.06254,0.0018529 0.348532,0.04021394 0.471733,0.06327554 0.03387,0.0063395 0.06639,0.01047792 0.07227,0.0091964 0.0086,-0.0018767 0.0095,-0.0014518 0.0048,0.0021845 -0.0046,0.0035467 -0.0025,0.0040021 0.0098,0.0021242 0.01198,-0.0018327 0.01426,-0.0013771 0.0098,0.0019531 -0.0045,0.00333 -0.0022,0.003786 0.0098,0.001953 0.01204,-0.001843 0.01428,-0.001387 0.0098,0.00199 -0.0046,0.003427 -0.0031,0.003896 0.007,0.002157 0.0071,-0.001223 0.01195,-7.0586e-4 0.01081,0.001149 -0.0028,0.004596 0.01957,0.008711 0.03235,0.005939 0.0084,-0.001825 0.0093,-0.001392 0.0045,0.002303 -0.0047,0.003638 -0.0033,0.004105 0.007,0.002328 0.0088,-0.001515 0.01205,-8.6434e-4 0.01025,0.002042 -0.0018,0.00294 0.0015,0.003455 0.01055,0.001657 0.01036,-0.002048 0.01193,-0.001649 0.0073,0.001864 -0.0046,0.003541 -0.0032,0.004009 0.007,0.002249 0.009,-0.001558 0.01207,-9.0188e-4 0.01016,0.002194 -0.0019,0.003094 4.68e-4,0.003614 0.0079,0.001738 0.0077,-0.001942 0.0099,-0.001404 0.0078,0.001953 -0.0021,0.003341 3.9e-5,0.003908 0.0075,0.002035 0.0062,-0.00156 0.01035,-9.779e-4 0.01035,0.001458 0,0.002436 0.0041,0.003018 0.01035,0.001458 0.0079,-0.001979 0.0096,-0.001396 0.0072,0.002448 -0.0024,0.003862 -6.15e-4,0.004417 0.0076,0.002366 0.0077,-0.001942 0.0099,-0.001404 0.0078,0.001953 -0.0021,0.003357 7.4e-5,0.003895 0.0078,0.001953 0.0077,-0.001942 0.0099,-0.001404 0.0078,0.001953 -0.0021,0.003357 7.4e-5,0.003895 0.0078,0.001953 0.0077,-0.001942 0.0099,-0.001404 0.0078,0.001953 -0.0021,0.003357 7.4e-5,0.003895 0.0078,0.001953 0.0077,-0.001942 0.0099,-0.001404 0.0078,0.001953 -0.0021,0.003357 7.4e-5,0.003895 0.0078,0.001953 0.0076,-0.001897 0.0099,-0.00137 0.0079,0.001802 -0.0019,0.003096 -2.04e-4,0.003667 0.0055,0.001846 0.0051,-0.00163 0.0083,-9.4427e-4 0.0083,0.001798 0,0.002655 0.0031,0.003438 0.0078,0.001953 0.0047,-0.001485 0.0078,-7.0195e-4 0.0078,0.001953 0,0.002655 0.0031,0.003438 0.0078,0.001953 0.0047,-0.001485 0.0078,-7.0195e-4 0.0078,0.001953 0,0.002655 0.0031,0.003438 0.0078,0.001953 0.0044,-0.00139 0.0078,-7.0195e-4 0.0078,0.001567 0,0.002226 0.0026,0.003035 0.0059,0.001798 0.0032,-0.001237 0.0059,-1.841e-4 0.0059,0.002339 0,0.00281 0.003,0.003627 0.0078,0.002108 0.0047,-0.001485 0.0078,-7.0195e-4 0.0078,0.001953 0,0.002655 0.0031,0.003438 0.0078,0.001953 0.0044,-0.00139 0.0078,-7.0195e-4 0.0078,0.001567 0,0.002226 0.0026,0.003035 0.0059,0.001798 0.0032,-0.001237 0.0059,-1.841e-4 0.0059,0.002339 0,0.00281 0.003,0.003627 0.0078,0.002108 0.0044,-0.00139 0.0078,-7.0195e-4 0.0078,0.001567 0,0.002226 0.0025,0.003103 0.0055,0.00195 0.003,-0.001153 0.0066,-1.9051e-4 0.0081,0.002139 0.0014,0.00233 0.0041,0.0033 0.006,0.002156 0.0019,-0.001144 0.0044,-3.7086e-4 0.0057,0.001719 0.0013,0.00209 0.0049,0.002809 0.0081,0.001599 0.0032,-0.00121 0.0057,-1.5082e-4 0.0057,0.002354 0,0.002505 0.0018,0.003421 0.0041,0.002035 0.0022,-0.001386 0.0066,-3.9557e-4 0.0098,0.002201 0.0031,0.002596 0.0057,0.003411 0.0057,0.001811 0,-0.0016 0.0024,-9.5193e-4 0.0052,0.001441 0.0029,0.002393 0.0061,0.003484 0.0072,0.002425 0.0027,-0.002678 0.184569,0.0567244 0.186084,0.0607715 6.76e-4,0.001806 0.0038,0.002315 0.0068,0.001131 0.0031,-0.001183 0.0056,-1.0199e-4 0.0056,0.002403 0,0.002505 0.0018,0.003468 0.0039,0.002141 0.0021,-0.001328 0.0039,-3.6458e-4 0.0039,0.002141 0,0.002505 0.0026,0.003543 0.0059,0.002306 0.0032,-0.001237 0.0059,-3.5774e-4 0.0059,0.001953 0,0.002311 0.0026,0.00319 0.0059,0.001953 0.0032,-0.001237 0.0059,-6.0098e-4 0.0059,0.001413 0,0.002014 0.0029,0.002539 0.0065,0.001167 0.0046,-0.001774 0.0056,-0.001053 0.0034,0.002494 -0.0023,0.003738 -8.79e-4,0.004289 0.0057,0.002198 0.0056,-0.001763 0.0079,-0.001338 0.0064,0.001154 -0.0031,0.005076 0.01921,0.0129572 0.0276,0.009736 0.0041,-0.001562 0.0054,-9.006e-4 0.0038,0.00182 -0.0016,0.002628 0.0056,0.007347 0.01872,0.0122638 0.01175,0.004395 0.06406,0.0263072 0.116257,0.0486928 0.259021,0.1110928 0.547779,0.25673706 0.761617,0.38414549 0.03798,0.0226318 0.07019,0.0405037 0.07156,0.0397152 0.0014,-7.8848e-4 0.0042,0.00168 0.0064,0.005484 0.0021,0.003805 0.0055,0.005898 0.0075,0.004652 0.002,-0.001246 0.0037,-6.0645e-4 0.0037,0.001422 0,0.00451 0.0194,0.0176069 0.02608,0.0176069 0.0027,0 0.0058,0.002455 0.0069,0.005456 0.0012,0.003001 0.0037,0.004476 0.0056,0.003278 0.0019,-0.001198 0.0046,5.5973e-4 0.0059,0.003906 0.0013,0.003346 0.0041,0.00499 0.0063,0.003653 0.0022,-0.001337 0.0039,-6.5415e-4 0.0039,0.001518 0,0.004675 0.0351,0.0295719 0.03528,0.0250199 6.6e-5,-0.001715 0.0019,-3.91e-6 0.0041,0.003801 0.0022,0.003805 0.0055,0.006012 0.0073,0.004905 0.0018,-0.001107 0.0043,7.2516e-4 0.0056,0.004072 0.0013,0.003346 0.0041,0.00499 0.0063,0.003653 0.0022,-0.001337 0.0039,-6.6278e-4 0.0039,0.001499 0,0.004761 0.05821,0.0457637 0.06301,0.0443826 0.0019,-5.3711e-4 0.0034,6.3231e-4 0.0034,0.002599 0,0.001966 0.01978,0.0180939 0.04394,0.0358388 0.527579,0.38733425 1.00029,0.90792945 1.340874,1.47670065 0.03125,0.052195 0.05897,0.096262 0.06159,0.097927 0.0026,0.00166 0.0034,0.00305 0.0018,0.00309 -0.0017,3.12e-5 6.1e-4,0.00715 0.005,0.015823 0.0047,0.00921 0.0098,0.014667 0.01231,0.013128 0.0025,-0.00156 0.0035,-4.287e-4 0.0023,0.00279 -0.0026,0.00732 0.01072,0.033158 0.01864,0.036197 0.0035,0.00134 0.0056,0.00463 0.0046,0.00732 -0.0022,0.00629 0.01555,0.04199 0.02091,0.04199 0.0022,0 0.003,0.00176 0.0017,0.00391 -0.0013,0.00215 -4.49e-4,0.00391 0.002,0.00391 0.0024,0 0.0034,0.00157 0.0022,0.0035 -0.0012,0.00192 5.48e-4,0.00454 0.0039,0.00581 0.0033,0.00127 0.0055,0.00483 0.0049,0.00791 -0.0014,0.00678 0.06766,0.1470235 0.0713,0.1447745 0.0036,-0.00224 0.01209,0.01752 0.0094,0.021899 -0.0012,0.00199 -2.69e-4,0.00361 0.0021,0.00361 0.0024,0 0.0033,0.00176 0.002,0.00391 -0.0013,0.00215 -4.49e-4,0.00391 0.002,0.00391 0.0024,0 0.0034,0.00164 0.0021,0.00364 -0.0028,0.00458 0.0099,0.031806 0.01374,0.02942 0.0037,-0.0023 0.0083,0.00956 0.0054,0.014169 -0.0012,0.00195 -2.31e-4,0.00355 0.0022,0.00355 0.0024,0 0.0033,0.00176 0.002,0.00391 -0.0013,0.00215 -4.49e-4,0.00391 0.002,0.00391 0.0024,0 0.0034,0.00163 0.0021,0.00361 -0.0033,0.00539 0.0062,0.023876 0.01082,0.021014 0.0024,-0.0015 0.003,8.55e-5 0.0015,0.00403 -0.0014,0.00358 -6.88e-4,0.0065 0.0015,0.0065 0.0022,0 0.003,0.00163 0.0018,0.00361 -0.0033,0.00539 0.0062,0.023876 0.01082,0.021014 0.0024,-0.0015 0.003,9.46e-5 0.0015,0.00407 -0.0032,0.00826 0.0049,0.026576 0.01023,0.023269 0.0024,-0.0015 0.003,9.45e-5 0.0015,0.00408 -0.0032,0.00826 0.0049,0.026576 0.01023,0.023269 0.0024,-0.00149 0.003,6.29e-5 0.0015,0.00391 -0.0032,0.00839 0.01256,0.046313 0.0179,0.043013 0.0025,-0.00152 0.0032,-1.066e-4 0.0017,0.00357 -0.0013,0.00335 0.0081,0.033005 0.02082,0.0659 l 0.02316,0.059809 V 3.3504152 3.484375 H 9.9550781 c -2.5910156,0 -4.7109375,-6.614e-4 -4.7109375,-0.00147 z"
     id="path7061" />
  <path
     style="fill:#0de5a8;stroke-width:1.5625e-05"
     d="m 5.2441406,3.4809265 c 0,-0.00582 0.053915,-0.1624851 0.080816,-0.2348327 0.034023,-0.091502 0.081518,-0.2092038 0.1145451,-0.2838672 0.01486,-0.033593 0.026195,-0.062408 0.02519,-0.064034 -0.00256,-0.00414 0.00232,-0.01571 0.00574,-0.013597 0.00385,0.00238 0.020511,-0.032639 0.017696,-0.037194 -0.00124,-0.00201 -2.915e-4,-0.00365 0.00211,-0.00365 0.0024,0 0.00328,-0.00176 0.00195,-0.00391 -0.00133,-0.00215 -4.489e-4,-0.00391 0.00195,-0.00391 0.0024,0 0.00335,-0.00164 0.00211,-0.00365 -0.00271,-0.00438 0.013771,-0.03962 0.017462,-0.037339 0.00367,0.00227 0.016174,-0.025208 0.013465,-0.029591 -0.00124,-0.002 -6.798e-4,-0.00364 0.00124,-0.00364 0.00192,0 0.00349,-0.00246 0.00349,-0.00547 0,-0.017037 0.2171209,-0.4028976 0.2242839,-0.3985903 0.00125,7.536e-4 0.00229,-7.497e-4 0.0023,-0.00334 2.73e-5,-0.00686 0.048237,-0.080883 0.052677,-0.080883 0.00207,0 0.00267,-0.00175 0.00135,-0.00389 -0.00132,-0.00214 0.00235,-0.00829 0.00815,-0.013672 0.00581,-0.00538 0.00898,-0.00984 0.00706,-0.0099 -0.00193,-6.53e-5 -3.871e-4,-0.00193 0.00342,-0.00415 0.0038,-0.00222 0.00601,-0.00549 0.00491,-0.00728 -0.00111,-0.00179 7.252e-4,-0.00431 0.00407,-0.00559 0.00335,-0.00128 0.0051,-0.00392 0.00391,-0.00586 -0.0012,-0.00194 5.598e-4,-0.00458 0.00391,-0.00586 0.00335,-0.00128 0.0051,-0.00392 0.00391,-0.00586 -0.0012,-0.00194 5.598e-4,-0.00458 0.00391,-0.00586 0.00335,-0.00128 0.00496,-0.00415 0.00359,-0.00638 -0.00137,-0.00222 0.0031,-0.00927 0.00993,-0.015653 0.00684,-0.00639 0.011028,-0.011611 0.00932,-0.011611 -0.00171,0 2.992e-4,-0.00258 0.00447,-0.00574 0.00417,-0.00315 0.00593,-0.00579 0.00391,-0.00586 -0.00202,-6.84e-5 -2.641e-4,-0.00271 0.00391,-0.00586 0.00417,-0.00315 0.00587,-0.00579 0.00378,-0.00586 -0.00209,-6.83e-5 1.371e-4,-0.00288 0.00495,-0.00625 0.00481,-0.00337 0.00785,-0.00758 0.00675,-0.00936 -0.0011,-0.00178 7.42e-4,-0.00428 0.00409,-0.00556 0.00335,-0.00128 0.0051,-0.00392 0.00391,-0.00586 -0.0012,-0.00194 7e-4,-0.00463 0.00422,-0.00598 0.00352,-0.00135 0.00534,-0.00351 0.00405,-0.0048 -0.00129,-0.00129 0.00153,-0.00558 0.00628,-0.00954 0.00474,-0.00396 0.00691,-0.00726 0.00482,-0.00733 -0.00209,-7.15e-5 1.371e-4,-0.00289 0.00495,-0.00626 0.00481,-0.00337 0.00785,-0.00758 0.00675,-0.00936 -0.0011,-0.00178 8.822e-4,-0.00433 0.0044,-0.00568 0.00352,-0.00135 0.00534,-0.00351 0.00405,-0.0048 -0.00129,-0.00129 0.00153,-0.00558 0.00628,-0.00954 0.00474,-0.00396 0.00691,-0.00726 0.00482,-0.00733 -0.00209,-7.15e-5 1.371e-4,-0.00289 0.00495,-0.00626 0.00481,-0.00337 0.00774,-0.00776 0.0065,-0.00977 -0.00124,-0.002 -6.016e-4,-0.00364 0.00141,-0.00364 0.00509,0 0.059375,-0.072842 0.056459,-0.075758 -0.0013,-0.0013 -4.51e-4,-0.00237 0.00189,-0.00237 0.00234,0 0.017028,-0.01626 0.032637,-0.036133 C 6.2699073,1.6609345 6.5376793,1.3852801 6.7929687,1.1715012 7.0832015,0.9284609 7.4075795,0.71565262 7.7539062,0.54107797 8.15737,0.337702 8.6184368,0.17925937 9.04612,0.09701703 9.077998,0.09088693 9.090061,0.08718073 9.085183,0.0850151 9.080673,0.0830141 9.082853,0.0826082 9.091223,0.083892 c 0.0072,0.0011055 0.020322,8.5442e-4 0.029155,-5.5803e-4 0.013081,-0.0020918 0.014637,-0.0031612 0.00839,-0.0057658 -0.00473,-0.0019735 -1.934e-4,-0.0024671 0.011861,-0.0012894 0.014907,0.0014565 0.017682,9.6338e-4 0.011719,-0.0020831 -0.00661,-0.0033759 -0.00601,-0.003705 0.00391,-0.0021342 0.017079,0.0027067 0.075241,-0.006325 0.065925,-0.01023725 -0.00424,-0.0017817 8.969e-4,-0.0022748 0.0122,-0.0011704 0.014366,0.0014036 0.017465,9.0369e-4 0.011719,-0.0018904 -0.00568,-0.0027618 -0.00195,-0.0032884 0.013672,-0.0019293 0.015901,0.0013836 0.019454,8.5977e-4 0.013672,-0.0020158 -0.00578,-0.0028758 -0.00274,-0.0033252 0.011719,-0.0017295 0.014875,0.0016419 0.018134,0.0011197 0.013672,-0.0021901 -0.00445,-0.003299 -0.00115,-0.0037695 0.013672,-0.0019531 0.015096,0.0018494 0.018201,0.0013793 0.013672,-0.0020705 -0.00453,-0.0034497 -0.00142,-0.0039199 0.013672,-0.0020705 0.014704,0.0018014 0.018083,0.0013313 0.013672,-0.0019025 -0.00438,-0.0032141 -5.718e-4,-0.0036367 0.015148,-0.001679 0.016421,0.002045 0.020341,0.0015385 0.017956,-0.0023202 -0.00236,-0.0038242 6.692e-4,-0.0043416 0.01346,-0.0022962 0.012037,0.0019249 0.015754,0.0014163 0.013719,-0.0018772 -0.00206,-0.0033318 0.00325,-0.0038234 0.02022,-0.0018733 0.013082,0.0015032 0.020895,0.0012 0.018106,-7.0257e-4 -0.0077,-0.0052524 0.1749777,-0.02135797 0.3193594,-0.02815588 0.1058535,-0.004983894 0.3530836,-0.00506462 0.4531246,-1.4795e-4 0.133523,0.00656217 0.211649,0.0128072 0.20625,0.01648663 -0.003,0.0020529 0.0059,0.0023839 0.02184,8.1393e-4 0.02068,-0.0020334 0.02623,-0.0015447 0.02398,0.0021093 -0.0023,0.0036435 0.0023,0.0040991 0.01953,0.0019479 0.01684,-0.0021034 0.02176,-0.0016526 0.01963,0.0017972 -0.0021,0.0034245 0.0025,0.0039803 0.018,0.0021681 0.01587,-0.0018551 0.01945,-0.0013907 0.01499,0.0019452 -0.0044,0.0033251 -2.07e-4,0.0038046 0.01758,0.0019877 0.01784,-0.0018231 0.02204,-0.0013436 0.01758,0.002009 -0.0045,0.0033611 -7.73e-4,0.0038333 0.01563,0.0019947 0.01629,-0.0018265 0.02007,-0.0013543 0.01563,0.0019531 -0.0044,0.0033074 -6.65e-4,0.0037796 0.01563,0.0019531 0.01642,-0.0018412 0.0201,-0.0013691 0.01563,0.0020038 -0.0045,0.0033847 -0.0013,0.0038552 0.01367,0.0020198 0.01483,-0.0018164 0.01812,-0.0013459 0.01367,0.0019531 -0.0044,0.003299 -0.0012,0.0037695 0.01367,0.0019531 0.01483,-0.0018164 0.01812,-0.0013459 0.01367,0.0019531 -0.0044,0.003299 -0.0012,0.0037695 0.01367,0.0019531 0.01483,-0.0018164 0.01812,-0.0013459 0.01367,0.0019531 -0.0044,0.003299 -0.0012,0.0037695 0.01367,0.0019531 0.01471,-0.0018023 0.01808,-0.0013321 0.01367,0.0019053 -0.0044,0.0032445 -0.0017,0.0036581 0.01124,0.0016874 0.01295,-0.0019768 0.01638,-0.001455 0.01415,0.0021494 -0.0022,0.0036044 0.0012,0.0041262 0.01415,0.0021494 0.01305,-0.001993 0.01571,-0.0015773 0.01124,0.0017569 -0.0045,0.0033404 -0.0017,0.0037997 0.01172,0.0019531 0.01345,-0.0018466 0.0162,-0.0013872 0.01172,0.0019531 -0.0045,0.0033404 -0.0017,0.0037997 0.01172,0.0019531 0.01357,-0.0018638 0.01624,-0.0014044 0.01172,0.0020148 -0.0046,0.0034401 -0.0025,0.0038721 0.0092,0.0019346 0.01068,-0.0017714 0.01424,-0.0012177 0.01231,0.00191 -0.0019,0.0031407 0.0015,0.0036175 0.0119,0.0016616 0.01118,-0.0020968 0.01391,-0.001597 0.01162,0.0021217 -0.0023,0.0036761 -3.9e-5,0.0042096 0.0092,0.0021834 0.0083,-0.0018273 0.01221,-0.0012052 0.01221,0.0019533 0,0.0025838 0.0027,0.0036051 0.0061,0.0023081 0.008,-0.0030656 0.108381,0.0165818 0.111636,0.02184788 0.0014,0.002245 0.0044,0.002902 0.0068,0.00146 0.009,-0.005536 0.248226,0.0543245 0.402883,0.10079303 0.106785,0.0320852 0.267174,0.0871152 0.268888,0.0922567 7.2e-4,0.002162 0.0027,0.003063 0.0044,0.002001 0.0043,-0.002652 0.02746,0.005746 0.02746,0.009954 0,0.001871 0.0029,0.002279 0.0065,9.0717e-4 0.0046,-0.001774 0.0056,-0.001053 0.0034,0.002494 -0.0023,0.003738 -8.79e-4,0.004289 0.0057,0.002198 0.0055,-0.001752 0.0079,-0.001333 0.0064,0.001125 -0.0032,0.005121 0.0074,0.009092 0.01575,0.005901 0.0041,-0.001564 0.0055,-9.4281e-4 0.0039,0.001666 -0.0033,0.005319 0.0071,0.00941 0.0156,0.006146 0.0039,-0.001488 0.0055,-9.112e-4 0.0041,0.001428 -0.0014,0.002245 0.028,0.0170118 0.06869,0.0345201 0.223105,0.0959857 0.499817,0.23337096 0.680495,0.33785951 0.03438,0.0198796 0.06557,0.0360376 0.06933,0.0359066 0.0038,-1.3086e-4 0.0087,0.003217 0.01094,0.00744 0.0023,0.004223 0.0058,0.006647 0.0078,0.005386 0.002,-0.001261 0.0037,-4.3152e-4 0.0037,0.001844 0,0.002275 0.0013,0.003929 0.0029,0.003674 0.0082,-0.001293 0.01286,9.4531e-4 0.01037,0.004972 -0.0016,0.002588 -0.0011,0.003457 0.0012,0.002039 0.0075,-0.004613 0.282899,0.18215273 0.287917,0.19522867 0.0012,0.003162 0.0039,0.004709 0.0059,0.003439 0.0021,-0.001271 0.0057,0.001304 0.008,0.005721 0.0024,0.004417 0.0059,0.007054 0.0078,0.005859 0.0019,-0.001195 0.0054,0.001442 0.0078,0.005859 0.0024,0.004417 0.0059,0.007054 0.0078,0.005859 0.0019,-0.001195 0.0054,0.001442 0.0078,0.005859 0.0024,0.00442 0.0059,0.00705 0.0078,0.00586 0.0019,-0.00119 0.0054,0.00144 0.0078,0.00586 0.0024,0.00442 0.0059,0.00705 0.0078,0.00586 0.0019,-0.00119 0.0054,0.00144 0.0078,0.00586 0.0024,0.00442 0.0058,0.00712 0.0076,0.006 0.0018,-0.00112 0.0063,0.0025 0.0099,0.00804 0.0036,0.00554 0.0076,0.00905 0.0089,0.0078 0.0012,-0.00125 0.0047,0.00127 0.0078,0.00559 0.003,0.00432 0.0069,0.00696 0.0087,0.00587 0.0018,-0.00109 0.0061,0.00245 0.0097,0.00787 0.0036,0.00542 0.0079,0.00894 0.0098,0.00781 0.0018,-0.00112 0.0063,0.00249 0.0099,0.00803 0.0036,0.00554 0.0076,0.0091 0.0088,0.00791 0.0012,-0.00119 0.0056,0.00219 0.0098,0.00751 0.0042,0.00532 0.0089,0.00884 0.01058,0.00783 0.0016,-0.00101 0.0069,0.00351 0.01175,0.010035 0.0048,0.00653 0.0097,0.010915 0.01091,0.00974 0.0012,-0.00117 0.0056,0.0023 0.0099,0.00771 0.0043,0.00541 0.0086,0.00896 0.0097,0.0079 0.0011,-0.00107 0.0064,0.00331 0.01176,0.00972 0.0054,0.00642 0.01064,0.010841 0.01165,0.00983 10e-4,-0.00101 0.0071,0.00418 0.01358,0.011541 0.0065,0.00736 0.01332,0.012399 0.01526,0.011205 0.0019,-0.00119 0.0035,-5.168e-4 0.0035,0.0015 0,0.00202 0.02065,0.021702 0.0459,0.043733 0.301201,0.2628684 0.605817,0.6027223 0.830602,0.926685 0.01453,0.020947 0.02805,0.038086 0.03004,0.038086 0.002,0 0.0032,0.00138 0.0026,0.00307 -0.0019,0.00583 0.03308,0.055464 0.03723,0.052896 0.0026,-0.00161 0.0032,-8.67e-5 0.0016,0.00409 -0.0016,0.00411 -3.48e-4,0.00749 0.0032,0.00886 0.0032,0.00122 0.0048,0.0038 0.0036,0.00574 -0.0012,0.00194 5.6e-4,0.00458 0.0039,0.00586 0.0033,0.00128 0.0051,0.00392 0.0039,0.00586 -0.0012,0.00194 2.78e-4,0.00447 0.0033,0.00562 0.003,0.00115 0.0055,0.00427 0.0055,0.00693 0,0.00834 0.01367,0.026135 0.01802,0.023451 0.0026,-0.00161 0.0032,-9.65e-5 0.0016,0.00409 -0.0016,0.00411 -3.48e-4,0.00749 0.0032,0.00886 0.0032,0.00122 0.0049,0.00368 0.0038,0.00547 -0.0011,0.00179 0.0011,0.00507 0.0049,0.00728 0.0038,0.00222 0.0055,0.00408 0.0039,0.00415 -0.0017,6.52e-5 -0.0012,0.00368 0.0012,0.00804 0.0023,0.00437 0.0062,0.00671 0.0086,0.00522 0.0029,-0.00177 0.0035,-4.179e-4 0.0018,0.00394 -0.0016,0.00411 -3.47e-4,0.00749 0.0032,0.00886 0.0032,0.00122 0.0048,0.00372 0.0037,0.00557 -0.0011,0.00185 0.0014,0.00679 0.0056,0.010984 0.0042,0.0042 0.0066,0.00861 0.0054,0.00982 -0.0012,0.0012 6.92e-4,0.00329 0.0042,0.00464 0.0035,0.00135 0.0054,0.00403 0.0042,0.00595 -0.0012,0.00192 -1.95e-4,0.0035 0.0022,0.0035 0.0024,0 0.0033,0.00167 0.0021,0.00371 -0.0013,0.00204 0.0014,0.00569 0.0059,0.00811 0.0049,0.0026 0.0073,0.00674 0.006,0.010109 -0.0012,0.00314 4.07e-4,0.0067 0.0036,0.00792 0.0032,0.00122 0.0048,0.00379 0.0036,0.00571 -0.0012,0.00192 -1.95e-4,0.0035 0.0022,0.0035 0.0024,0 0.0033,0.00165 0.0021,0.00367 -0.0012,0.00202 8.47e-4,0.00548 0.0047,0.00769 0.0038,0.00222 0.0056,0.00408 0.004,0.00415 -0.0016,6.52e-5 6.5e-4,0.0037 0.005,0.00807 0.0044,0.00438 0.0069,0.00965 0.0056,0.011719 -0.0013,0.00207 -5.57e-4,0.00376 0.0016,0.00376 0.0043,0 0.04193,0.066457 0.04042,0.071289 -5.05e-4,0.00161 9.44e-4,0.00293 0.0032,0.00293 0.0023,0 0.003,0.00176 0.0017,0.00391 -0.0013,0.00215 -7.31e-4,0.00391 0.0013,0.00391 0.0021,0 0.0076,0.00747 0.01239,0.016602 0.0048,0.00913 0.01365,0.025608 0.01977,0.036615 0.0061,0.011008 0.01002,0.021115 0.0087,0.022461 -0.0013,0.00135 -4.83e-4,0.00245 0.0019,0.00245 0.0071,0 0.165475,0.3243986 0.169711,0.3475632 5.8e-4,0.00317 0.0033,0.00813 0.0059,0.011021 0.0043,0.00461 0.0057,0.010423 0.0045,0.018908 -1.83e-4,0.00137 0.0014,0.00357 0.0035,0.00488 0.0055,0.00347 0.01673,0.031902 0.01419,0.036008 -0.0012,0.00192 -1.91e-4,0.00349 0.0022,0.00349 0.0024,0 0.0034,0.00161 0.0022,0.00357 -0.0012,0.00196 -6.13e-4,0.00416 0.0013,0.00488 0.005,0.00183 0.02417,0.050364 0.02159,0.054537 -0.0012,0.00188 -1.44e-4,0.00341 0.0023,0.00341 0.0024,0 0.0033,0.00176 0.002,0.00391 -0.0013,0.00215 -3.63e-4,0.00391 0.0021,0.00391 0.0025,0 0.0035,0.00264 0.0023,0.00586 -0.0012,0.00322 -6.01e-4,0.00586 0.0014,0.00586 0.002,0 0.0025,0.00293 0.0012,0.0065 -0.0018,0.00475 -0.0011,0.00563 0.0027,0.00327 0.0038,-0.00236 0.0046,-0.00148 0.0027,0.00327 -0.0014,0.00358 -8.47e-4,0.0065 0.0012,0.0065 0.002,0 0.0025,0.00292 0.0012,0.0065 -0.0018,0.00462 -0.0011,0.00561 0.0025,0.00342 0.0037,-0.00231 0.0043,-8.79e-4 0.0022,0.00571 -0.0018,0.0058 -0.0014,0.00792 0.0014,0.00623 0.0029,-0.00179 0.0042,0.041105 0.0044,0.142089 l 2.6e-4,0.1446521 H 9.9551602 c -2.721185,0 -4.7110196,-0.00146 -4.7110196,-0.00345 z"
     id="path7100" />
  <path
     style="fill:#0de5a8;stroke-width:2.20971e-05"
     d="M 2.3860051,6.7934732 C 1.5562757,5.9632442 0.86745549,5.2715363 0.85529348,5.2563445 0.6492751,4.9990039 0.58454294,4.6381972 0.688292,4.3255048 0.75991205,4.109647 0.89800787,3.9281185 1.0853408,3.8035798 1.1860485,3.7366294 1.3201149,3.6822689 1.4473592,3.6567906 c 0.085571,-0.017134 0.2361429,-0.021024 0.3226386,-0.00833 0.1716779,0.025186 0.3252363,0.087252 0.4573309,0.1848461 0.035323,0.026098 0.3453466,0.331835 1.1304462,1.1148186 l 1.081775,1.0788594 h 4.6676109 4.6676112 v 1.1379999 1.138 h -1.549418 -1.549417 l -0.04572,-0.036915 C 10.502415,8.1628635 10.350706,8.0916088 10.18911,8.0588842 c -0.05563,-0.011265 -0.07853,-0.012755 -0.1929403,-0.01255 -0.1134752,2.033e-4 -0.1370401,0.0018 -0.1871601,0.01268 -0.1774877,0.03853 -0.3407918,0.1184661 -0.4605768,0.2254496 l -0.020732,0.018516 H 6.6111523 3.894604 Z"
     id="path7139" />
  <path
     style="fill:#0de5a8;stroke-width:1.5625e-05"
     d="m 0.7993111,11.021652 c 0.001291,-0.0013 0.0250013,-0.0061 0.0526898,-0.0108 l 0.0503428,-0.0085 1.5498047,-0.0013 c 0.9135626,-7.45e-4 1.5498046,1.75e-4 1.5498046,0.0022 0,0.0057 -0.2945693,0.008 -1.5761717,0.01216 -0.6681642,0.0022 -1.3079879,0.005 -1.4218306,0.0062 -0.11384266,0.0012 -0.20593052,0.0012 -0.20463965,-8.7e-5 z"
     id="path7215" />
  <path
     style="fill:#0de5a8;stroke-width:1.5625e-05"
     d="m 0.02180055,12.205715 c -0.02728659,-0.1294 -0.02651358,-0.292724 0.0019869,-0.419798 0.0055107,-0.02457 0.01336865,-0.05457 0.01746216,-0.06666 0.0082424,-0.02435 0.0077442,-0.01692 -0.001755,0.02616 -0.0034702,0.01574 -0.0080482,0.04826 -0.01017332,0.07227 -0.0050992,0.0576 -0.0049497,0.320175 2.1588e-4,0.379059 0.0022363,0.02549 0.0033373,0.04708 0.0024467,0.04797 -8.9059e-4,8.9e-4 -0.0054731,-0.01666 -0.01018337,-0.03899 z"
     id="path7254" />
  <path
     style="fill:#0de5a8;stroke-width:1.5625e-05"
     d="M 0.92382813,12.997308 C 0.74717129,12.983973 0.56935867,12.919407 0.42207056,12.815114 0.28095264,12.715191 0.16398733,12.575139 0.09247171,12.42046 0.0714163,12.37492 0.07890792,12.38227 0.10582975,12.43356 c 0.13119117,0.249951 0.3550969,0.438049 0.6168265,0.51818 0.059117,0.0181 0.1171941,0.02855 0.18037004,0.03245 0.0589287,0.0036 0.36658201,0.0113 0.52861431,0.01316 0.041895,4.82e-4 -0.051269,9.68e-4 -0.2070312,0.0011 -0.1557617,1.13e-4 -0.29111331,-3.92e-4 -0.30078127,-0.0011 z"
     id="path7330" />
  <path
     style="fill:#0de5a8;stroke-width:1.5625e-05"
     d="m 0.05439738,11.677734 c 0.0052009,-0.02207 0.03053649,-0.08203 0.05552447,-0.131406 0.0837544,-0.165511 0.21237433,-0.30358 0.37498221,-0.402531 0.0449223,-0.02734 0.13987203,-0.07362 0.15048969,-0.07335 0.002877,7.1e-5 -0.0264757,0.01633 -0.0652286,0.03613 -0.10944645,0.05592 -0.1733004,0.101076 -0.2552029,0.180457 -0.10854078,0.1052 -0.18536044,0.219375 -0.24504861,0.364207 -0.01529867,0.03712 -0.01985453,0.0449 -0.01551627,0.02649 z"
     id="path7406" />
  <path
     style="fill:#0de5a8;stroke-width:1.5625e-05"
     d="M 4.6066348,14.704463 C 4.4461687,14.376907 4.3248549,14.060179 4.2245965,13.707031 4.1852398,13.568402 4.1201161,13.295902 4.1237425,13.285022 c 7.528e-4,-0.0023 0.00822,0.02629 0.016597,0.06344 0.040416,0.179277 0.1137731,0.437912 0.1787018,0.63005 0.093156,0.275669 0.1686613,0.461586 0.2957951,0.72834 0.026064,0.05469 0.04687,0.100994 0.046234,0.102901 -6.355e-4,0.0019 -0.025132,-0.04548 -0.054436,-0.105294 z"
     id="path7482" />
  <path
     style="fill:#0de5a8;stroke-width:1.5625e-05"
     d="m 1.7363552,17.937164 c 7.96e-5,-0.01623 0.073449,-0.134378 0.1222943,-0.19693 0.02729,-0.03495 1.4358939,-1.448946 1.4396633,-1.445176 10e-4,10e-4 -0.2098505,0.214087 -0.4685589,0.473526 -0.5587553,0.560332 -0.734939,0.741184 -0.8751203,0.898308 -0.087893,0.09851 -0.1459576,0.170204 -0.1904332,0.235115 -0.01533,0.02237 -0.02786,0.03819 -0.027845,0.03516 z"
     id="path7558" />
  <path
     style="fill:#0de5a8;stroke-width:1.5625e-05"
     d="m 1.6587991,18.561521 c -0.01455,-0.07501 -0.017579,-0.1076 -0.017881,-0.19238 -2.771e-4,-0.07766 0.00345,-0.125027 0.014594,-0.185272 0.00393,-0.02127 0.00478,0.0023 0.00555,0.154297 4.97e-4,0.09868 0.00285,0.198444 0.00523,0.221706 0.00238,0.02326 0.00359,0.04304 0.00268,0.04394 -9.069e-4,9.07e-4 -0.00548,-0.01813 -0.010172,-0.04229 z"
     id="path7671" />
  <path
     style="fill:#0de5a8;stroke-width:1.5625e-05"
     d="m 2.5332031,19.355191 c -0.040932,-0.0045 -0.1220078,-0.01879 -0.1248564,-0.02194 -0.00115,-0.0013 0.00757,-0.0012 0.019388,1.57e-4 0.1339667,0.01543 0.3191165,0.01207 0.4316406,-0.0078 0.064807,-0.01146 0.1736294,-0.05173 0.234375,-0.08672 0.1096984,-0.06319 0.3166393,-0.256306 0.9863281,-0.920423 0.6764405,-0.670813 1.3348123,-1.324597 1.5674353,-1.556513 0.1498824,-0.149427 0.2746871,-0.272216 0.2773438,-0.272864 0.011504,-0.0028 -2.6171409,2.61388 -2.6611853,2.649079 -0.1410114,0.112691 -0.300484,0.18254 -0.4832135,0.211647 -0.046151,0.0074 -0.1995143,0.01071 -0.2472553,0.0054 z"
     id="path7747" />
  <path
     style="fill:#0de5a8;stroke-width:1.5625e-05"
     d="m 3.9550781,17.044578 v -1.413703 l 0.3714245,-0.37144 0.3714244,-0.37144 -0.00794,-0.01306 c -0.00437,-0.0072 -0.00705,-0.0145 -0.00596,-0.01626 0.00109,-0.0018 1.6e-5,-0.0032 -0.00239,-0.0032 -0.0024,0 -0.00328,-0.0018 -0.00195,-0.0039 0.00133,-0.0021 4.489e-4,-0.0039 -0.00195,-0.0039 -0.0024,0 -0.00328,-0.0018 -0.00195,-0.0039 0.00133,-0.0021 4.49e-4,-0.0039 -0.00195,-0.0039 -0.0024,0 -0.00328,-0.0018 -0.00195,-0.0039 0.00133,-0.0021 6.078e-4,-0.0039 -0.0016,-0.0039 -0.00221,0 -0.00305,-0.0025 -0.00188,-0.0056 0.00117,-0.0031 -0.00145,-0.0091 -0.00582,-0.01351 -0.00437,-0.0044 -0.011577,-0.01506 -0.016006,-0.02374 l -0.00805,-0.01579 h 2.1836731 2.1836732 v 1.17904 c 0,0.648472 -0.00117,1.374449 -0.0026,1.613281 L 9.0006625,18 h -0.010843 c -0.00596,0 -0.011827,-0.0016 -0.01303,-0.0035 -0.0012,-0.0019 -0.0057,-0.0026 -0.01,-0.0015 -0.00459,0.0012 -0.00781,1.18e-4 -0.00781,-0.0026 0,-0.0032 -0.00384,-0.0038 -0.012207,-0.002 -0.00907,0.002 -0.011455,0.0015 -0.00928,-0.0021 0.00219,-0.0035 -2.852e-4,-0.004 -0.00977,-0.002 -0.00964,0.0021 -0.011973,0.0016 -0.00969,-0.0021 0.0023,-0.0037 -5.765e-4,-0.0042 -0.012207,-0.0022 -0.011629,0.002 -0.013833,0.0016 -0.00935,-0.0017 0.00449,-0.0033 0.00221,-0.0038 -0.00977,-0.002 -0.01198,0.0018 -0.014258,0.0014 -0.00977,-0.002 0.00449,-0.0033 0.00221,-0.0038 -0.00977,-0.002 -0.00884,0.0014 -0.013526,9.68e-4 -0.010791,-8.85e-4 0.00299,-0.002 -0.01189,-0.0067 -0.039063,-0.01219 C 8.0599063,17.807616 7.3412011,17.508393 6.6816406,17.072221 6.4822111,16.940338 6.3211559,16.819777 6.1142578,16.647499 c -0.038135,-0.03175 -0.069375,-0.0564 -0.069423,-0.05476 -4.77e-5,0.0016 -0.00346,-0.0014 -0.00759,-0.0068 -0.00413,-0.0054 -0.00898,-0.0098 -0.010786,-0.0098 -0.00181,0 -0.02344,-0.01772 -0.048075,-0.03937 -0.024635,-0.02166 -0.04768,-0.04043 -0.051211,-0.04171 -0.00626,-0.0023 -0.025101,0.0131 -0.021032,0.01717 0.00162,0.0016 -1.1394343,1.140311 -1.7606333,1.75698 l -0.1904297,0.18904 z"
     id="path7786" />
  <path
     style="fill:#0de5a8;stroke-width:1.5625e-05"
     d="m 3.9550781,17.044755 v -1.413911 l 0.370796,-0.370781 0.3707959,-0.37078 -0.01732,-0.03449 c -0.00953,-0.01897 -0.015983,-0.03451 -0.014351,-0.03455 0.00163,-3.3e-5 0.00106,-0.0014 -0.00128,-0.0029 -0.0045,-0.003 -0.025052,-0.03692 -0.025052,-0.0413 0,-0.0014 0.9827528,-0.0026 2.1838951,-0.0026 h 2.1838951 l -0.00128,1.611003 c -7.027e-4,0.886051 -0.00255,1.612278 -0.00411,1.613837 -0.00331,0.0033 -0.085056,-0.01001 -0.085056,-0.01386 0,-0.0014 -0.00552,-0.0018 -0.012273,-7.97e-4 -0.00722,0.0011 -0.011326,2.67e-4 -0.00997,-0.0019 0.00135,-0.0022 -0.00269,-0.003 -0.00977,-0.002 -0.00737,0.0011 -0.011137,2.66e-4 -0.00968,-0.0021 0.00143,-0.0023 -0.00149,-0.0031 -0.00728,-0.002 -0.00532,0.001 -0.012074,-1.46e-4 -0.015012,-0.0026 -0.00294,-0.0024 -0.00849,-0.0032 -0.012337,-0.0017 -0.00439,0.0017 -0.00606,0.0012 -0.00449,-0.0014 0.0032,-0.0052 -0.058045,-0.01756 -0.071536,-0.01446 -0.00796,0.0018 -0.00868,0.0014 -0.00391,-0.0023 0.00462,-0.0036 0.00255,-0.004 -0.00977,-0.0021 -0.00973,0.0015 -0.013663,0.0011 -0.010427,-0.0011 0.0069,-0.0046 -0.015671,-0.0093 -0.029994,-0.0062 -0.00651,0.0014 -0.00856,9.67e-4 -0.00552,-0.0012 0.0064,-0.0046 -0.067775,-0.0213 -0.081008,-0.01827 -0.00792,0.0018 -0.00866,0.0014 -0.00391,-0.0022 0.00463,-0.0035 0.003,-0.004 -0.00781,-0.0023 -0.00752,0.0012 -0.011095,10e-4 -0.00794,-3.7e-4 0.00761,-0.0033 -0.1676902,-0.04854 -0.1771144,-0.04566 -0.00403,0.0012 -0.00633,6.24e-4 -0.00512,-0.0013 0.00122,-0.002 -0.030645,-0.01296 -0.0708,-0.02443 C 7.9190922,17.724612 7.4630467,17.532393 7.0546875,17.301717 6.7280608,17.117211 6.4308752,16.911622 6.1322397,16.66358 6.1018467,16.63834 6.0760607,16.6186 6.0749387,16.61972 c -0.00112,0.0011 -0.00408,-0.0018 -0.00658,-0.0064 -0.0025,-0.0047 -0.00549,-0.0075 -0.00664,-0.0064 -0.00116,0.0012 -0.021669,-0.01499 -0.045582,-0.03589 -0.023912,-0.0209 -0.05357,-0.0465 -0.065905,-0.0569 l -0.022427,-0.01891 -0.9229376,0.919391 c -0.5076157,0.505665 -0.9514785,0.947445 -0.9863617,0.981732 l -0.063424,0.06234 z"
     id="path7825" />
  <path
     style="fill:#0de5a8;stroke-width:1.5625e-05"
     d="M 8.0761719,17.765932 C 7.9331922,17.716854 7.8732223,17.694752 7.765625,17.651477 7.2842502,17.45787 6.8410195,17.209344 6.4243899,16.899426 c -0.050179,-0.03733 -0.090356,-0.06875 -0.089282,-0.06982 0.00107,-0.0011 0.035977,0.02335 0.077563,0.05428 0.5169989,0.384521 1.0907953,0.684023 1.7123291,0.893778 0.049414,0.01668 0.086328,0.03036 0.082031,0.03041 -0.0043,5e-5 -0.063184,-0.01892 -0.1308594,-0.04215 z"
     id="path7864" />
  <path
     style="fill:#0de5a8;stroke-width:1.5625e-05"
     d="m 11.037435,17.99065 c 8.95e-4,-8.45e-4 0.02448,-0.0062 0.05241,-0.01193 0.286156,-0.05855 0.434096,-0.09437 0.631012,-0.152784 0.484656,-0.143761 0.988481,-0.3728 1.441253,-0.655192 0.24742,-0.154315 0.462584,-0.310348 0.708299,-0.513645 0.04259,-0.03524 0.07832,-0.06319 0.07941,-0.06211 0.0011,0.0011 -0.02234,0.02279 -0.05205,0.04825 -0.747689,0.640616 -1.642656,1.087161 -2.604796,1.299669 -0.13915,0.03073 -0.261787,0.05365 -0.255534,0.04774 z"
     id="path7903" />
  <path
     style="fill:#0de5a8;stroke-width:1.5625e-05"
     d="m 17.105469,19.328353 c -0.04669,-0.01205 -0.120299,-0.03838 -0.122404,-0.04379 -7.21e-4,-0.0019 -0.0029,-0.0024 -0.0049,-0.0012 -0.002,0.0012 -0.0036,6.23e-4 -0.0036,-0.0013 0,-0.0019 -0.01274,-0.0111 -0.02832,-0.02035 -0.08643,-0.05135 -0.209545,-0.151886 -0.377678,-0.308396 -0.187922,-0.174931 -0.457222,-0.441018 -2.13021,-2.104794 -0.347091,-0.34518 -0.358797,-0.356366 -0.367901,-0.351563 -0.0052,0.0027 -0.0284,0.02166 -0.05163,0.04207 -0.02323,0.02041 -0.0437,0.03711 -0.04551,0.03711 -0.0018,0 -0.0059,0.0035 -0.009,0.0078 -0.0031,0.0043 -0.0078,0.0078 -0.01043,0.0078 -0.0026,0 -0.0047,0.002 -0.0047,0.0044 0,0.0055 -0.02023,0.02356 -0.111328,0.0995 -0.721694,0.601578 -1.572183,1.023964 -2.488347,1.23581 -0.15022,0.03473 -0.345327,0.07208 -0.35035,0.06705 -0.0015,-0.0015 -0.0034,-0.727715 -0.0044,-1.613886 l -0.0017,-1.611219 h 2.180219 2.180219 l -0.02771,0.05532 -0.02771,0.05532 0.503266,0.503277 c 0.276796,0.276802 0.501512,0.503277 0.49937,0.503277 -0.0021,0 0.220337,0.224561 0.494398,0.499023 0.884227,0.885526 1.119805,1.1264 1.275045,1.303711 0.08536,0.09749 0.133648,0.158115 0.171852,0.215733 0.01029,0.01553 0.02024,0.02729 0.02211,0.02614 0.0032,-0.002 0.0041,-1.28e-4 0.005,0.01106 2.14e-4,0.0027 0.0016,0.0058 0.0031,0.0069 0.004,0.003 0.04017,0.08478 0.04771,0.107804 0.0036,0.011 0.01043,0.04088 0.01518,0.06641 0.0085,0.04556 0.0086,0.05003 0.0056,0.241729 -0.0028,0.177694 -0.004,0.218835 -0.0064,0.224609 -4.57e-4,0.0011 -0.0016,0.0076 -0.0025,0.01442 -0.002,0.01544 -0.02479,0.08754 -0.02949,0.09336 -0.0019,0.0023 -0.0023,0.0054 -8.71e-4,0.0068 0.0014,0.0014 5.75e-4,0.0026 -0.0019,0.0026 -0.0025,0 -0.0034,0.0028 -0.0019,0.0065 0.0018,0.0048 0.0011,0.0056 -0.0027,0.0033 -0.0038,-0.0024 -0.0046,-0.0015 -0.0027,0.0033 0.0014,0.0036 8.47e-4,0.0065 -0.0012,0.0065 -0.002,0 -0.0026,0.0031 -0.0012,0.0068 0.0013,0.0038 9.93e-4,0.0055 -7.92e-4,0.0039 -0.0018,-0.0016 -0.01489,0.02035 -0.02912,0.04883 -0.103407,0.206902 -0.263611,0.366812 -0.468877,0.468021 -0.029,0.0143 -0.06284,0.03009 -0.0752,0.03509 -0.01235,0.005 -0.02246,0.01047 -0.02246,0.01215 0,0.0017 -0.0026,0.0021 -0.0059,8.16e-4 -0.0032,-0.0012 -0.0059,-3.01e-4 -0.0059,0.0021 0,0.0024 -0.0013,0.004 -0.0029,0.0037 -0.0016,-3.48e-4 -0.0082,0.0016 -0.01465,0.0042 -0.0064,0.0027 -0.01531,0.0053 -0.0197,0.0058 -0.0044,4.93e-4 -0.0099,0.0021 -0.01234,0.0036 -0.0024,0.0015 -0.0074,0.0015 -0.01122,6.6e-5 -0.0046,-0.0018 -0.006,-0.0012 -0.0041,0.0019 0.002,0.0032 -9.21e-4,0.0039 -0.0101,0.0023 -0.0083,-0.0014 -0.01111,-9.59e-4 -0.0079,0.0014 0.0061,0.0044 0.01612,0.0041 -0.243311,0.0065 l -0.207032,0.0019 -0.04297,-0.01109 z"
     id="path7942" />
  <path
     style="fill:#0de5a8;stroke-width:1.5625e-05"
     d="m 16.909814,19.250564 c -0.07768,-0.04021 -0.13846,-0.08113 -0.202783,-0.136523 -0.01766,-0.01521 -0.1319,-0.128792 -1.53908,-1.530238 -0.554307,-0.552049 -1.025822,-1.021175 -1.047811,-1.042502 -0.02199,-0.02133 -0.03912,-0.03964 -0.03807,-0.04068 0.0029,-0.0029 0.03818,0.03139 0.289027,0.280533 0.34291,0.340584 1.385512,1.375736 1.609375,1.597873 0.602319,0.597678 0.800231,0.778791 0.958008,0.87669 0.01987,0.01233 0.03613,0.02312 0.03613,0.02398 0,0.0038 -0.0093,-3.9e-4 -0.0648,-0.02913 z"
     id="path7981" />
  <path
     style="fill:#0de5a8;stroke-width:1.5625e-05"
     d="m 18.225629,17.885737 c -0.110796,-0.156791 -0.299805,-0.35967 -0.8405,-0.902182 -0.129995,-0.130431 -0.235459,-0.238042 -0.234366,-0.239136 0.0039,-0.0039 0.96256,0.959981 0.990519,0.995815 0.01509,0.01934 0.0381,0.05112 0.05114,0.07064 0.02699,0.0404 0.06892,0.114643 0.06624,0.117313 -9.79e-4,9.79e-4 -0.01584,-0.01812 -0.03303,-0.04245 z"
     id="path8057" />
  <path
     style="fill:#0de5a8;stroke-width:1.5625e-05"
     d="m 18.340909,18.376953 c 0.0011,-0.105273 0.0023,-0.191903 0.0028,-0.19251 4.97e-4,-6.07e-4 0.0041,0.02224 0.008,0.05078 0.01245,0.09134 0.0079,0.243813 -0.0096,0.319463 -0.0017,0.0075 -0.0023,-0.07246 -0.0012,-0.177734 z"
     id="path8096" />
  <path
     style="fill:#0de5a8;stroke-width:1.5625e-05"
     d="m 17.264089,19.355168 c -0.01803,-0.002 -0.04616,-0.0061 -0.0625,-0.0091 -0.02859,-0.0052 -0.02549,-0.0054 0.08161,-0.0058 0.06123,-2.39e-4 0.152637,-0.0013 0.203125,-0.0023 0.09588,-0.002 0.09935,-2.43e-4 0.02344,0.01167 -0.0488,0.0077 -0.19716,0.01101 -0.245677,0.0056 z"
     id="path8135" />
  <path
     style="fill:#0de5a8;stroke-width:1.5625e-05"
     d="m 17.785156,19.260013 c 0.206568,-0.102331 0.36083,-0.252972 0.466661,-0.455712 0.03458,-0.06625 0.03602,-0.05879 0.0019,0.0096 -0.06531,0.130787 -0.16711,0.253897 -0.283149,0.342407 -0.06218,0.04743 -0.148166,0.09749 -0.214276,0.124751 -0.05048,0.02082 -0.0395,0.01281 0.0289,-0.02107 z"
     id="path8174" />
  <path
     style="fill:#0de5a8;stroke-width:1.5625e-05"
     d="m 11.455078,13.613281 v -2.589843 l 3.90332,4.2e-5 3.903321,4.2e-5 0.0332,0.01554 c 0.01826,0.0085 0.0354,0.01556 0.03809,0.01558 0.0027,2.4e-5 0.0049,0.0017 0.0049,0.0038 0,0.0021 0.0029,0.0027 0.0065,0.0013 0.0041,-0.0016 0.0055,-9.42e-4 0.0039,0.0017 -0.0033,0.0053 0.0071,0.0094 0.01594,0.0062 0.0038,-0.0013 0.0055,-9.79e-4 0.0039,8.21e-4 -0.0016,0.0018 0.02706,0.01868 0.06378,0.0375 0.111354,0.05709 0.18591,0.111021 0.269271,0.194777 0.09838,0.09884 0.176103,0.217018 0.230506,0.350458 0.0072,0.01762 0.01469,0.03102 0.01669,0.02978 0.0021,-0.0013 0.0025,0.0014 8.46e-4,0.0065 -0.002,0.0064 -0.0015,0.008 0.002,0.0059 0.0034,-0.0021 0.004,-5.25e-4 0.002,0.0059 -0.0021,0.0066 -0.0015,0.008 0.0022,0.0057 0.0035,-0.0022 0.0043,-0.0012 0.0026,0.0031 -0.0013,0.0034 0.0011,0.02259 0.0053,0.04263 0.01042,0.04923 0.01567,0.218441 0.01136,0.366121 -0.0018,0.06101 -0.0022,0.113595 -9.67e-4,0.116852 0.0013,0.0035 6.26e-4,0.0049 -0.0018,0.0034 -0.0025,-0.0015 -0.0041,0.0031 -0.0041,0.01205 -9.8e-5,0.01637 -0.03486,0.12405 -0.04253,0.131711 -0.0027,0.0027 -0.0039,0.006 -0.0025,0.0074 0.0013,0.0013 4.23e-4,0.0024 -0.002,0.0024 -0.0026,0 -0.0034,0.0029 -0.002,0.0068 0.0013,0.0038 9.97e-4,0.0055 -7.81e-4,0.0039 -0.0018,-0.0016 -0.01327,0.01612 -0.02553,0.03941 -0.06185,0.117467 -0.155263,0.23241 -0.261544,0.321825 -0.119187,0.100274 -0.286941,0.182133 -0.433775,0.211669 -0.115492,0.02323 -0.522068,0.02943 -2.169533,0.03308 l -1.097449,0.0024 -0.0071,0.04101 c -0.0039,0.02256 -0.0071,0.04488 -0.0071,0.04961 3.9e-5,0.0047 -0.0017,0.0097 -0.0038,0.01098 -0.0021,0.0013 -0.0028,0.0067 -0.0015,0.01191 0.0015,0.0059 7.05e-4,0.0095 -0.002,0.0095 -0.0027,0 -0.0035,0.0036 -0.0021,0.0093 0.0013,0.0051 4.37e-4,0.01052 -0.0019,0.01196 -0.0023,0.0014 -0.0032,0.0069 -0.0018,0.01215 0.0015,0.0061 7.18e-4,0.0095 -0.0022,0.0095 -0.0032,0 -0.0038,0.0039 -0.002,0.01221 0.002,0.0091 0.0015,0.01145 -0.0021,0.0093 -0.0035,-0.0022 -0.004,2.84e-4 -0.002,0.0098 0.0021,0.0095 0.0016,0.01195 -0.002,0.0098 -0.0035,-0.0022 -0.004,2.84e-4 -0.002,0.0098 0.0021,0.0097 0.0016,0.01198 -0.0021,0.0096 -0.0038,-0.0023 -0.0043,-5.5e-5 -0.0024,0.0095 0.0018,0.0089 0.0012,0.01172 -0.002,0.0098 -0.0032,-0.002 -0.0037,8.85e-4 -0.002,0.0098 0.0017,0.0086 0.0012,0.01169 -0.0018,0.0099 -0.0029,-0.0018 -0.0034,0.0013 -0.0015,0.01006 0.0021,0.0095 0.0016,0.01195 -0.002,0.0098 -0.0035,-0.0022 -0.004,2.84e-4 -0.002,0.0098 0.0021,0.0095 0.0016,0.01195 -0.002,0.0098 -0.0035,-0.0022 -0.0041,4.26e-4 -0.0021,0.01025 0.002,0.01036 0.0016,0.01193 -0.0019,0.0073 -0.0035,-0.0046 -0.004,-0.0032 -0.0022,0.007 0.0012,0.0071 7.58e-4,0.01198 -10e-4,0.01088 -0.0018,-0.0011 -0.0054,0.008 -0.0081,0.02031 -0.009,0.04141 -0.05135,0.20939 -0.06721,0.266467 -0.06552,0.235777 -0.159095,0.511871 -0.243733,0.719162 -0.04711,0.11537 -0.07963,0.186773 -0.159061,0.349197 -0.04308,0.08809 -0.07815,0.163327 -0.07795,0.167202 2.06e-4,0.0039 -0.0023,0.0081 -0.0057,0.0094 -0.0043,0.0016 0.184455,0.192805 0.653543,0.661899 l 0.659576,0.659585 h -2.581051 -2.58105 z"
     id="path8252" />
  <path
     style="fill:#0de5a8;stroke-width:1.5625e-05"
     d="m 15.521603,14.419853 c -6.5e-5,-0.0022 0.0114,-0.03207 0.02549,-0.06641 0.105066,-0.256138 0.207405,-0.570837 0.283253,-0.871025 0.0293,-0.115961 0.0362,-0.130932 0.01129,-0.02449 -0.06882,0.294034 -0.172937,0.616984 -0.288733,0.895588 -0.02519,0.06062 -0.03109,0.07312 -0.0313,0.06634 z"
     id="path8291" />
  <path
     style="fill:#0de5a8;stroke-width:1.5625e-05"
     d="m 19.999619,12 c 0,-0.0333 5.99e-4,-0.04692 0.0013,-0.03027 7.33e-4,0.01665 7.33e-4,0.0439 0,0.06055 -7.32e-4,0.01665 -0.0013,0.003 -0.0013,-0.03027 z"
     id="path8330" />
  <path
     style="fill:#0de5a8;stroke-width:1.5625e-05"
     d="m 19.973941,12.044315 c 0.0012,-0.163552 -4.37e-4,-0.214625 -0.0091,-0.292362 -0.0031,-0.0277 0.01702,0.05621 0.02376,0.09912 0.0084,0.05376 0.01181,0.192466 0.006,0.246634 -0.0048,0.04434 -0.01534,0.11062 -0.01939,0.121601 -0.0014,0.0038 -0.0019,-0.075 -0.0012,-0.174991 z"
     id="path8369" />
  <path
     style="fill:#0de5a8;stroke-width:1.5625e-05"
     d="M 11.455078,12.363281 V 9.7734375 h 2.273473 2.273474 l -0.001,0.6171875 -10e-4,0.617188 0.154297,6.7e-5 c 0.08486,3.5e-5 0.51289,0.0017 0.951172,0.0037 0.438281,0.002 1.100971,0.0048 1.472644,0.0062 l 0.675769,0.0026 0.05275,0.02243 c 0.02901,0.01234 0.06114,0.02558 0.07139,0.02943 0.01025,0.0038 0.01776,0.0079 0.01667,0.009 -0.0011,0.0011 0.02313,0.01545 0.05381,0.03194 0.06651,0.03574 0.100748,0.05752 0.15305,0.09734 0.04659,0.03548 0.138647,0.126006 0.175162,0.172257 0.05507,0.06975 0.109415,0.160112 0.142884,0.237581 0.0099,0.02284 0.01879,0.03853 0.02109,0.0371 0.0024,-0.0015 0.003,8.7e-5 0.0015,0.004 -0.0014,0.0036 -0.0011,0.0065 6.85e-4,0.0065 0.0051,0 0.02429,0.0687 0.02135,0.07637 -0.0017,0.0044 -0.0012,0.006 0.0014,0.0044 0.0044,-0.0027 0.0162,0.04851 0.02724,0.118426 0.0093,0.05886 0.0093,0.204794 -5.4e-5,0.265625 -0.0091,0.0595 -0.02407,0.126227 -0.03852,0.171875 -0.01527,0.04824 -0.04215,0.113281 -0.04681,0.113281 -0.002,0 -0.0026,0.0018 -0.0012,0.0039 0.0013,0.0021 4.49e-4,0.0039 -0.002,0.0039 -0.0024,0 -0.0033,0.0018 -0.002,0.0039 0.0013,0.0021 2.58e-4,0.0039 -0.0024,0.0039 -0.0026,0 -0.0038,0.001 -0.0025,0.0023 0.0013,0.0013 -3.13e-4,0.0052 -0.0035,0.0088 -0.0032,0.0036 -0.01717,0.0257 -0.03111,0.04916 -0.06703,0.11278 -0.170674,0.227021 -0.277161,0.3055 -0.118402,0.08726 -0.272946,0.155712 -0.404068,0.178973 -0.08013,0.01421 -0.334237,0.02049 -1.03711,0.02561 -0.285742,0.0021 -0.814844,0.0041 -1.175781,0.0044 -0.360938,3.3e-4 -0.742334,0.0017 -0.847547,0.003 l -0.191296,0.0024 -0.005,0.03125 c -0.01383,0.08606 -0.03363,0.191532 -0.03615,0.192519 -0.0016,6.12e-4 -0.002,0.0054 -9.94e-4,0.01074 0.0011,0.0058 3.9e-5,0.0096 -0.0028,0.0096 -0.0025,0 -0.0036,0.0017 -0.0023,0.0037 0.0029,0.0046 -0.0061,0.05485 -0.0098,0.05485 -0.0015,0 -0.0018,0.0047 -7.11e-4,0.01035 0.0014,0.0071 5.82e-4,0.0095 -0.0024,0.0076 -0.0028,-0.0018 -0.0036,-5.73e-4 -0.0021,0.0033 0.0013,0.0033 9.89e-4,0.0091 -6.45e-4,0.0129 -0.0016,0.0038 -0.0026,0.0101 -0.0021,0.0141 6.19e-4,0.0049 -6.56e-4,0.0063 -0.0039,0.0043 -0.0035,-0.0022 -0.0042,-5.87e-4 -0.0026,0.0057 0.0012,0.0048 -0.0062,0.04505 -0.01659,0.08953 -0.06536,0.280467 -0.166206,0.59435 -0.279458,0.869839 -0.01855,0.04512 -0.03552,0.08686 -0.03771,0.09277 -0.0022,0.0059 -0.0056,0.0098 -0.0075,0.0086 -0.0019,-0.0012 -0.0038,1.21e-4 -0.0041,0.0029 -3.16e-4,0.0028 -9.36e-4,0.0077 -0.0014,0.01097 -4.38e-4,0.0032 -0.0011,0.0082 -0.0014,0.01097 -3.2e-4,0.0028 -0.0021,0.0042 -0.0039,0.0031 -0.004,-0.0025 -0.01327,0.01639 -0.01037,0.02107 0.0027,0.0044 -0.002,0.01608 -0.0057,0.01383 -0.0037,-0.0023 -0.01268,0.01693 -0.01,0.02132 0.0027,0.0044 -0.002,0.0161 -0.0055,0.0139 -0.0047,-0.0029 -0.01983,0.03231 -0.01714,0.03979 0.0014,0.0038 9.67e-4,0.0055 -9.07e-4,0.0038 -0.0039,-0.0036 -0.115961,0.223054 -0.11279,0.228186 0.0012,0.0019 1.52e-4,0.0034 -0.0023,0.0034 -0.0024,0 -0.0033,0.0018 -0.002,0.0039 0.0013,0.0021 4.49e-4,0.0039 -0.002,0.0039 -0.0024,0 -0.0033,0.0018 -0.002,0.0039 0.0013,0.0021 4.49e-4,0.0039 -0.002,0.0039 -0.0024,0 -0.0033,0.0018 -0.002,0.0039 0.0013,0.0021 2.6e-4,0.0039 -0.0024,0.0039 -0.0026,0 -0.0037,0.0011 -0.0024,0.0024 0.0013,0.0013 -0.0029,0.01297 -0.0094,0.02585 l -0.01183,0.02343 0.01096,0.01223 c 0.006,0.0067 0.0206,0.02234 0.03239,0.0347 l 0.02144,0.02246 h -1.957885 -1.957888 z"
     id="path8486" />
  <path
     style="fill:#0de5a8;stroke-width:1.5625e-05"
     d="M 11.455078,12.363281 V 9.7734375 h 2.273438 2.273437 v 0.6171875 0.617188 l 0.260742,5e-5 c 0.245927,4.7e-5 1.307925,0.0043 2.473536,0.0099 l 0.521388,0.0025 0.05088,0.02148 c 0.08072,0.03408 0.0958,0.0411 0.0958,0.04456 0,0.0018 0.0029,0.0021 0.0065,7.55e-4 0.0038,-0.0015 0.0055,-8.97e-4 0.0041,0.0013 -0.0013,0.0021 0.01819,0.01511 0.04331,0.02891 0.101538,0.05579 0.161568,0.101118 0.244957,0.184987 0.08802,0.08853 0.141462,0.163891 0.198339,0.279706 0.01741,0.03545 0.03292,0.06535 0.03447,0.06644 0.01026,0.0072 0.04028,0.115778 0.05455,0.197228 0.0077,0.04415 0.0089,0.06405 0.0089,0.152344 -3.9e-5,0.108368 -0.003,0.137271 -0.02319,0.227682 -0.0056,0.02517 -0.01712,0.06676 -0.02553,0.09242 -0.0149,0.04547 -0.05669,0.138879 -0.06213,0.138879 -0.0015,0 -0.01359,0.01802 -0.02688,0.04004 -0.06263,0.103787 -0.157456,0.210621 -0.254299,0.286505 -0.135028,0.105805 -0.324127,0.186721 -0.46875,0.20058 -0.146047,0.014 -0.529158,0.01903 -1.78711,0.02347 -1.096328,0.0039 -1.415354,0.006 -1.418936,0.0096 -0.0011,0.0011 -0.0071,0.03151 -0.01324,0.06757 -0.01835,0.107058 -0.0544,0.284229 -0.05809,0.285553 -0.0019,6.75e-4 -0.0026,0.0034 -0.0016,0.0061 0.0025,0.0064 -0.02803,0.138363 -0.05723,0.24753 -0.06828,0.255246 -0.159917,0.522819 -0.264206,0.771484 -0.0097,0.0231 -0.01919,0.04199 -0.02112,0.04199 -0.0019,0 -0.0033,0.0013 -0.003,0.0029 0.0014,0.0087 -0.0012,0.01679 -0.0073,0.02284 -0.0037,0.0037 -0.0071,0.0121 -0.0074,0.01858 -3.24e-4,0.0065 -0.0038,0.01415 -0.0078,0.01704 -0.004,0.0029 -0.0075,0.01053 -0.0078,0.01697 -3.6e-4,0.0071 -0.0047,0.01549 -0.01106,0.02141 -0.0077,0.0071 -0.0098,0.01191 -0.0078,0.01796 0.0018,0.0058 0.0013,0.0074 -0.002,0.0054 -0.0028,-0.0017 -0.0041,-7.38e-4 -0.0034,0.0024 0.0014,0.0064 -0.02075,0.05811 -0.02406,0.05607 -0.0035,-0.0021 -0.05918,0.111147 -0.05667,0.115215 0.0012,0.0019 -0.01481,0.03619 -0.03552,0.07619 l -0.03766,0.07273 0.03171,0.03249 c 0.01744,0.01787 0.03171,0.03358 0.03171,0.03492 0,0.0013 -0.880664,0.0024 -1.957032,0.0024 h -1.957031 z"
     id="path8525" />
  <path
     style="fill:#0de5a8;stroke-width:1.5625e-05"
     d="m 18.876953,12.995941 c 0.152914,-0.004 0.261584,-0.01033 0.302571,-0.01758 0.01728,-0.0031 0.03405,-0.0054 0.03727,-0.0053 0.01234,5.56e-4 -0.0197,0.0077 -0.07031,0.01571 -0.04689,0.0074 -0.07155,0.0084 -0.222656,0.0094 l -0.169922,0.001 z"
     id="path8564" />
  <path
     style="fill:#0de5a8;stroke-width:1.5625e-05"
     d="m 19.207031,12.974618 c 0.0021,-7.31e-4 0.02412,-0.0069 0.04883,-0.01376 0.124022,-0.03432 0.263251,-0.106372 0.367156,-0.190016 0.07239,-0.05828 0.159296,-0.154281 0.21392,-0.236324 0.0141,-0.02117 0.02645,-0.03767 0.02746,-0.03666 0.0028,0.0028 -0.03191,0.05694 -0.06429,0.10045 -0.112884,0.15168 -0.272105,0.271472 -0.447865,0.336957 -0.04682,0.01744 -0.129046,0.04141 -0.140637,0.04099 -0.0047,-1.7e-4 -0.0067,-9.06e-4 -0.0046,-0.0016 z"
     id="path8603" />
  <path
     style="fill:#0de5a8;stroke-width:1.5625e-05"
     d="m 18.132812,11.015485 c -0.309375,-0.0015 -0.91538,-0.004 -1.346679,-0.0057 -0.442585,-0.0017 -0.78418,-0.0045 -0.78418,-0.0064 0,-0.005 3.021541,-0.0044 3.078125,6.37e-4 0.02471,0.0022 0.05898,0.0063 0.07617,0.0092 0.03695,0.0062 -0.102008,0.0065 -1.023438,0.0022 z"
     id="path8642" />
  <path
     style="fill:#0de5a8;stroke-width:1.5625e-05"
     d="M 19.336153,4.4394531 C 19.292291,4.2451308 19.195811,4.071345 19.053121,3.9296408 c -0.09701,-0.09634 -0.21391,-0.1713285 -0.353525,-0.2267785 -0.05238,-0.020803 -0.04897,-0.025156 0.0041,-0.00528 0.146772,0.054931 0.259382,0.126526 0.364805,0.2319343 0.113318,0.1133012 0.19237,0.2411422 0.241741,0.3909349 0.01721,0.052222 0.03668,0.1336774 0.03438,0.1438312 -8e-4,0.00353 -0.0046,-0.00764 -0.0085,-0.024829 z"
     id="path8681" />
  <path
     style="fill:#0de5a8;stroke-width:1.5625e-05"
     d="M 11.455078,6.2714844 V 6.0273437 l 2.049805,-1.23e-4 2.049805,-1.23e-4 0.923873,-0.9207754 c 0.944288,-0.9411211 1.156996,-1.148516 1.283442,-1.2513827 0.06736,-0.054796 0.128334,-0.092297 0.209455,-0.1288115 0.02512,-0.011308 0.04461,-0.022288 0.0433,-0.024399 -0.0014,-0.00223 3.05e-4,-0.00281 0.004,-0.00139 0.0074,0.00282 0.03005,-0.00412 0.03005,-0.0092 0,-0.00187 0.0026,-0.00239 0.0059,-0.00115 0.0032,0.00124 0.0059,5.076e-4 0.0059,-0.00162 0,-0.00432 -3.9e-5,-0.00431 0.0625,-0.020312 0.07863,-0.02012 0.148207,-0.028517 0.238281,-0.02876 0.04404,-1.186e-4 0.09678,0.00198 0.117188,0.00466 0.04687,0.00615 0.133877,0.023035 0.147699,0.028656 0.0058,0.00235 0.01314,0.00461 0.01636,0.00503 0.02904,0.00374 0.122776,0.041067 0.186262,0.074174 0.208191,0.1085698 0.377728,0.2960905 0.461367,0.5103068 0.03141,0.080452 0.0597,0.1898873 0.06085,0.2353693 2.77e-4,0.011048 0.0021,0.021219 0.004,0.022602 0.0019,0.00138 0.0042,0.04445 0.0052,0.095703 0.0013,0.070694 6.06e-4,0.091773 -0.0028,0.087328 -0.0035,-0.00452 -0.0041,3.742e-4 -0.0027,0.021484 0.001,0.015039 8.8e-4,0.022949 -2.85e-4,0.017578 -0.0013,-0.00591 -0.0056,0.01258 -0.01107,0.046875 -0.0049,0.031152 -0.0079,0.060858 -0.0067,0.066012 0.0017,0.00706 0.0011,0.0086 -0.0028,0.00623 -0.0038,-0.00235 -0.0045,-9.348e-4 -0.0028,0.0056 0.003,0.011331 -0.01531,0.076116 -0.03816,0.1352856 -0.03157,0.081746 -0.08826,0.1817727 -0.138232,0.2439079 -0.02614,0.032505 -0.360529,0.371677 -0.861684,0.8740235 L 17.89849,6.515625 h -3.221706 -3.221706 z"
     id="path8720" />
</svg>
