<?xml version="1.0" encoding="UTF-8" standalone="no"?>
<svg
   viewBox="0 0 20 20"
   version="1.1"
   id="svg3402"
   sodipodi:docname="heart.svg"
   inkscape:version="1.1.1 (3bf5ae0d25, 2021-09-20)"
   xmlns:inkscape="http://www.inkscape.org/namespaces/inkscape"
   xmlns:sodipodi="http://sodipodi.sourceforge.net/DTD/sodipodi-0.dtd"
   xmlns="http://www.w3.org/2000/svg"
   xmlns:svg="http://www.w3.org/2000/svg">
  <defs
     id="defs3406" />
  <sodipodi:namedview
     id="namedview3404"
     pagecolor="#ffffff"
     bordercolor="#666666"
     borderopacity="1.0"
     inkscape:pageshadow="2"
     inkscape:pageopacity="0.0"
     inkscape:pagecheckerboard="0"
     showgrid="false"
     inkscape:zoom="64"
     inkscape:cx="7.0390625"
     inkscape:cy="7.8203125"
     inkscape:window-width="1920"
     inkscape:window-height="1017"
     inkscape:window-x="1912"
     inkscape:window-y="-8"
     inkscape:window-maximized="1"
     inkscape:current-layer="svg3402" />
  <path
     d="M10 3.22l-.61-.6a5.5 5.5 0 0 0-7.78 7.77L10 18.78l8.39-8.4a5.5 5.5 0 0 0-7.78-7.77l-.61.61z"
     id="path3400" />
  <path
     style="fill:#0de5a8;stroke:#0de5a8;stroke-width:0.004;stroke-opacity:1;stroke-miterlimit:4;stroke-dasharray:none"
     d="m 4.9803434,3.4887901 c 0,-1.6935812 0.00128,-2.3371919 0.00466,-2.3371919 0.00256,0 0.0432,-0.00382 0.090301,-0.00849 0.2987458,-0.029608 0.6511873,-0.033452 0.952523,-0.010388 0.6301108,0.048228 1.2377521,0.2016084 1.8205112,0.4595321 0.1190154,0.052675 0.3601776,0.1744187 0.4726238,0.2385902 0.3546404,0.2023881 0.6592772,0.4214021 0.9617914,0.691465 0.044327,0.039572 0.2240215,0.2130006 0.3993211,0.3853967 l 0.3187261,0.3134473 0.335832,-0.334942 c 0.322716,-0.3218603 0.379601,-0.3762358 0.50156,-0.4794266 0.429221,-0.3631688 0.914307,-0.6593406 1.436311,-0.8769472 0.470769,-0.1962482 0.97213,-0.3270576 1.48093,-0.3863872 0.06249,-0.00729 0.262013,-0.025725 0.2794,-0.02582 0.0042,-2.31e-5 0.0053,0.4736265 0.0053,2.3541607 V 5.825982 H 9.5102463 4.9803434 Z"
     id="path3576" />
  <path
     style="fill:#0de5a8;stroke:none;stroke-width:0.000135982;stroke-miterlimit:4;stroke-dasharray:none;stroke-opacity:1"
     d="M 5.7250139,14.507587 C 3.3865384,12.165721 1.3961392,10.150212 1.3019045,10.028678 0.03276622,8.391878 -0.23454066,6.2627234 0.59302581,4.3823133 0.88339598,3.7225296 1.265485,3.1874371 1.8435077,2.6310897 2.6571788,1.8479305 3.659366,1.3622877 4.8528602,1.1728091 l 0.144481,-0.022938 V 3.4815525 5.8132336 H 9.5187451 14.040149 V 3.4631279 1.1130222 l 0.552427,0.017721 c 0.819211,0.02628 1.445462,0.1786977 2.18792,0.5324979 1.957145,0.9326313 3.198348,3.0099907 3.093601,5.1776582 -0.03918,0.8107894 -0.207163,1.4589755 -0.566241,2.1849103 -0.435987,0.8814188 -0.250431,0.6796017 -4.993216,5.4307844 -2.365723,2.369912 -4.309536,4.308932 -4.319584,4.308932 -0.010048,0 -1.9315665,-1.916072 -4.2700421,-4.257939 z"
     id="path3652" />
  <path
     style="fill:#0de5a8;stroke:none;stroke-width:1.5625e-05;stroke-miterlimit:4;stroke-dasharray:none;stroke-opacity:1"
     d="M 12.917969,10.734375 V 8.1445313 h 3.371093 c 2.35555,0 3.371094,0.00124 3.371094,0.00411 0,0.01025 -0.08874,0.2690678 -0.121144,0.3533131 -0.07905,0.2055277 -0.151592,0.366061 -0.297448,0.6582032 -0.133246,0.2668851 -0.185162,0.3569837 -0.293497,0.509353 -0.28146,0.3958654 -0.866648,1.0128324 -2.748605,2.8978734 -0.25042,0.25083 -0.453637,0.456055 -0.451593,0.456055 0.002,0 -0.0031,0.007 -0.01138,0.01546 -0.0083,0.0085 -0.01637,0.01468 -0.01793,0.01372 -0.0016,-9.62e-4 -0.005,8.69e-4 -0.0077,0.0041 -0.0027,0.0032 -0.0033,0.0058 -0.0014,0.0058 0.0019,0 -0.05548,0.05889 -0.12743,0.130859 l -0.130815,0.13086 H 14.18459 12.917967 Z"
     id="path3728" />
  <path
     style="fill:#0de5a8;stroke:none;stroke-width:1.5625e-05;stroke-miterlimit:4;stroke-dasharray:none;stroke-opacity:1"
     d="m 16.589891,12.178157 c -2.6e-5,-0.0019 0.135744,-0.139974 0.301711,-0.306796 1.330888,-1.337748 1.870855,-1.9200104 2.098618,-2.2630014 0.0125,-0.01882 0.02361,-0.033331 0.0247,-0.032246 0.0024,0.00243 -0.07401,0.1177365 -0.137305,0.2070893 -0.125488,0.1771622 -0.253052,0.3367001 -0.40604,0.5078131 -0.0617,0.06901 -1.881586,1.894177 -1.88168,1.887141 z"
     id="path3806" />
  <path
     style="fill:#0de5a8;stroke:none;stroke-width:1.5625e-05;stroke-miterlimit:4;stroke-dasharray:none;stroke-opacity:1"
     d="m 8.4570313,4.3667696 c 0,-2.2139255 5.976e-4,-2.4572199 0.00603,-2.4551348 0.010296,0.00395 0.1172669,0.071691 0.1970938,0.1248111 0.2615741,0.1740623 0.5144823,0.3754453 0.7246093,0.5769841 0.064967,0.062312 0.3824651,0.3731041 0.530332,0.5191311 l 0.085019,0.083962 0.317324,-0.3166544 C 10.634657,2.5833223 10.715398,2.506433 10.84375,2.398665 11.179509,2.1167526 11.519074,1.892604 11.913271,1.6926698 l 0.09491,-0.048139 h 2.366891 2.366891 l 0.0216,0.00955 0.0216,0.00955 v 2.5802931 2.580293 H 12.621094 8.4570313 Z"
     id="path3845" />
  <path
     style="fill:#0de5a8;stroke:none;stroke-width:8.83884e-05;stroke-miterlimit:4;stroke-dasharray:none;stroke-opacity:1"
     d="M 8.5957668,17.392639 C 8.0792474,16.883994 6.5131164,15.315351 5.1154756,13.906768 1.1160796,9.8760601 1.2507619,10.016204 0.9883047,9.6122328 0.6401125,9.0762991 0.38134733,8.4590588 0.24343088,7.8354626 0.13433593,7.3421845 0.12146995,7.2103614 0.12245692,6.5959804 0.12323891,6.1091984 0.13069499,5.9792724 0.17127838,5.7452426 0.2747381,5.1486274 0.41051548,4.7271182 0.67355675,4.1859628 0.83844221,3.8467435 1.1627562,3.3348917 1.3201896,3.1654077 c 0.047979,-0.051652 0.083908,-0.093913 0.079842,-0.093913 -0.00407,0 0.1391588,-0.1461609 0.3182779,-0.3248021 0.179119,-0.1786411 0.3334054,-0.3227324 0.3428586,-0.3202028 0.00945,0.00253 0.023144,-0.010921 0.030423,-0.029891 0.037835,-0.098596 0.6779074,-0.5212226 1.1014381,-0.7272574 1.6879204,-0.82112176 3.639823,-0.73688718 5.2593784,0.2269691 0.4243589,0.2525513 0.701802,0.4763022 1.2159532,0.9806356 l 0.3323412,0.3259954 0.286377,-0.2890278 c 0.157508,-0.1589653 0.386299,-0.3755896 0.508425,-0.4813875 0.817887,-0.7085348 1.847588,-1.1634466 2.926787,-1.2930267 0.272142,-0.032676 1.110654,-0.039859 1.091821,-0.00935 -0.0048,0.00783 0.07318,0.014196 0.173372,0.014137 0.33066,-1.946e-4 0.998783,0.164856 1.507991,0.3725287 1.424029,0.5807672 2.580577,1.8044093 3.088061,3.2672059 0.206655,0.5956723 0.281628,1.0191685 0.297612,1.6810973 0.01567,0.6490807 -0.04086,1.1143513 -0.203562,1.6752582 -0.07412,0.2555404 -0.210028,0.6190737 -0.234974,0.6285317 -0.01075,0.00408 -0.01393,0.016506 -0.0071,0.027621 0.0069,0.011115 0.002,0.02021 -0.01091,0.02021 -0.01287,0 -0.02177,0.00746 -0.01978,0.016573 0.0075,0.034135 -0.03132,0.1381068 -0.05152,0.1381068 -0.01155,0 -0.01486,0.00994 -0.0073,0.022097 0.0075,0.012153 0.0025,0.022097 -0.01105,0.022097 -0.01359,0 -0.01856,0.00994 -0.01105,0.022097 0.0075,0.012153 0.0025,0.022097 -0.01105,0.022097 -0.01359,0 -0.01856,0.00994 -0.01105,0.022097 0.0075,0.012153 0.0048,0.022097 -0.0061,0.022097 -0.01084,0 -0.02004,0.01243 -0.02044,0.027621 -0.002,0.077991 -0.357531,0.6301614 -0.603751,0.9377719 -0.08572,0.107087 -1.967379,2.006941 -4.181475,4.221898 L 10.464449,18.318485 9.9996712,18.317968 9.534893,18.31745 Z"
     id="path3884" />
  <path
     style="fill:#0de5a8;stroke:none;stroke-width:1.5625e-05;stroke-miterlimit:4;stroke-dasharray:none;stroke-opacity:1"
     d="M 2.3393561,11.118018 C 1.9171171,10.695393 1.5497088,10.325 1.5228933,10.294922 1.4329826,10.194072 1.3102951,10.047778 1.3131964,10.044877 c 8.39e-4,-8.39e-4 0.028711,0.02773 0.061938,0.06349 0.2348155,0.252691 0.6393004,0.667643 1.3880798,1.424002 0.1909592,0.192892 0.3464449,0.351466 0.3455238,0.352388 -9.21e-4,9.21e-4 -0.347143,-0.34411 -0.7693819,-0.766734 z"
     id="path3923" />
</svg>
