<?xml version="1.0" encoding="UTF-8" standalone="no"?>
<svg
   viewBox="0 0 20 20"
   version="1.1"
   id="svg4150"
   sodipodi:docname="portfolio.svg"
   inkscape:version="1.1.1 (3bf5ae0d25, 2021-09-20)"
   xmlns:inkscape="http://www.inkscape.org/namespaces/inkscape"
   xmlns:sodipodi="http://sodipodi.sourceforge.net/DTD/sodipodi-0.dtd"
   xmlns:xlink="http://www.w3.org/1999/xlink"
   xmlns="http://www.w3.org/2000/svg"
   xmlns:svg="http://www.w3.org/2000/svg">
  <defs
     id="defs4154">
    <linearGradient
       id="linearGradient6662"
       inkscape:swatch="solid">
      <stop
         style="stop-color:#0de5a8;stop-opacity:1;"
         offset="0"
         id="stop6660" />
    </linearGradient>
    <linearGradient
       inkscape:collect="always"
       xlink:href="#linearGradient6662"
       id="linearGradient6664"
       x1="-0.00120049"
       y1="5.4906179"
       x2="20.001208"
       y2="5.4906179"
       gradientUnits="userSpaceOnUse" />
  </defs>
  <sodipodi:namedview
     id="namedview4152"
     pagecolor="#ffffff"
     bordercolor="#666666"
     borderopacity="1.0"
     inkscape:pageshadow="2"
     inkscape:pageopacity="0.0"
     inkscape:pagecheckerboard="0"
     showgrid="false"
     inkscape:zoom="45.254834"
     inkscape:cx="12.584291"
     inkscape:cy="8.3416503"
     inkscape:window-width="1920"
     inkscape:window-height="1017"
     inkscape:window-x="1912"
     inkscape:window-y="-8"
     inkscape:window-maximized="1"
     inkscape:current-layer="svg4150" />
  <path
     d="M9 12H1v6a2 2 0 0 0 2 2h14a2 2 0 0 0 2-2v-6h-8v2H9v-2zm0-1H0V5c0-1.1.9-2 2-2h4V2a2 2 0 0 1 2-2h4a2 2 0 0 1 2 2v1h4a2 2 0 0 1 2 2v6h-9V9H9v2zm3-8V2H8v1h4z"
     id="path4148" />
  <path
     style="fill:none;stroke-width:0.0000961539"
     d="M 0.00589521,7.8305288 C 0.01386359,4.2874502 -0.00160596,4.5857986 0.19628195,4.1587007 0.43640764,3.6404418 0.89611704,3.2484911 1.4707933,3.0720452 l 0.1758413,-0.05399 2.1814904,-0.00747 2.1814904,-0.00747 V 2.38997 c 0,-0.4669406 0.00912,-0.6572926 0.038237,-0.7982655 0.163794,-0.79298046 0.8071262,-1.41524462 1.60745,-1.55480939 0.3145101,-0.05484598 4.3737076,-0.05505131 4.6880356,-2.3714e-4 0.802764,0.13999034 1.444683,0.76045785 1.60881,1.55504653 0.02912,0.1409729 0.03824,0.3313249 0.03824,0.7982655 v 0.6131507 l 2.18149,0.00747 2.18149,0.00747 0.180289,0.054821 c 0.570344,0.1734274 1.003015,0.5367255 1.250167,1.0497195 0.220397,0.4574598 0.202254,0.1375473 0.210284,3.7079326 l 0.0071,3.1550482 h -4.495525 -4.495526 l -0.0063,-0.9915866 -0.0063,-0.9915866 H 10 9.0024038 l -0.00628,0.9915866 -0.00628,0.9915866 H 4.4943255 -0.00120049 Z M 11.995192,2.5 V 1.9951923 H 10 8.0048077 V 2.5 3.0048077 H 10 11.995192 Z"
     id="path4289" />
  <path
     style="fill:none;stroke-width:9.61539e-05"
     d="M 0.00589521,7.8305288 C 0.01386359,4.2874502 -0.00160596,4.5857986 0.19628195,4.1587007 0.43640764,3.6404418 0.89611704,3.2484911 1.4707933,3.0720452 l 0.1758413,-0.05399 2.1814904,-0.00747 2.1814904,-0.00747 V 2.38997 c 0,-0.4669406 0.00912,-0.6572926 0.038237,-0.7982655 0.163794,-0.79298046 0.8071262,-1.41524462 1.60745,-1.55480939 0.3145101,-0.05484598 4.3737076,-0.05505131 4.6880356,-2.3714e-4 0.802764,0.13999034 1.444683,0.76045785 1.60881,1.55504653 0.02912,0.1409729 0.03824,0.3313249 0.03824,0.7982655 v 0.6131507 l 2.18149,0.00747 2.18149,0.00747 0.180289,0.054821 c 0.570344,0.1734274 1.003015,0.5367255 1.250167,1.0497195 0.220397,0.4574598 0.202254,0.1375473 0.210284,3.7079326 l 0.0071,3.1550482 h -4.495525 -4.495526 l -0.0063,-0.9915866 -0.0063,-0.9915866 H 10 9.0024038 l -0.00628,0.9915866 -0.00628,0.9915866 H 4.4943255 -0.00120049 Z M 11.995192,2.5 V 1.9951923 H 10 8.0048077 V 2.5 3.0048077 H 10 11.995192 Z"
     id="path4365" />
  <path
     style="fill:none;stroke-width:9.61539e-05"
     d="M 0.00589521,7.8305288 C 0.01386359,4.2874502 -0.00160596,4.5857986 0.19628195,4.1587007 0.43640764,3.6404418 0.89611704,3.2484911 1.4707933,3.0720452 l 0.1758413,-0.05399 2.1814904,-0.00747 2.1814904,-0.00747 V 2.38997 c 0,-0.4669406 0.00912,-0.6572926 0.038237,-0.7982655 0.163794,-0.79298046 0.8071262,-1.41524462 1.60745,-1.55480939 0.3145101,-0.05484598 4.3737076,-0.05505131 4.6880356,-2.3714e-4 0.802764,0.13999034 1.444683,0.76045785 1.60881,1.55504653 0.02912,0.1409729 0.03824,0.3313249 0.03824,0.7982655 v 0.6131507 l 2.18149,0.00747 2.18149,0.00747 0.180289,0.054821 c 0.570344,0.1734274 1.003015,0.5367255 1.250167,1.0497195 0.220397,0.4574598 0.202254,0.1375473 0.210284,3.7079326 l 0.0071,3.1550482 h -4.495525 -4.495526 l -0.0063,-0.9915866 -0.0063,-0.9915866 H 10 9.0024038 l -0.00628,0.9915866 -0.00628,0.9915866 H 4.4943255 -0.00120049 Z M 11.995192,2.5 V 1.9951923 H 10 8.0048077 V 2.5 3.0048077 H 10 11.995192 Z"
     id="path4404" />
  <path
     style="fill:none;stroke-width:9.61539e-05"
     d="M 0.00589521,7.8305288 C 0.01386359,4.2874502 -0.00160596,4.5857986 0.19628195,4.1587007 0.43640764,3.6404418 0.89611704,3.2484911 1.4707933,3.0720452 l 0.1758413,-0.05399 2.1814904,-0.00747 2.1814904,-0.00747 V 2.38997 c 0,-0.4669406 0.00912,-0.6572926 0.038237,-0.7982655 0.163794,-0.79298046 0.8071262,-1.41524462 1.60745,-1.55480939 0.3145101,-0.05484598 4.3737076,-0.05505131 4.6880356,-2.3714e-4 0.802764,0.13999034 1.444683,0.76045785 1.60881,1.55504653 0.02912,0.1409729 0.03824,0.3313249 0.03824,0.7982655 v 0.6131507 l 2.18149,0.00747 2.18149,0.00747 0.180289,0.054821 c 0.570344,0.1734274 1.003015,0.5367255 1.250167,1.0497195 0.220397,0.4574598 0.202254,0.1375473 0.210284,3.7079326 l 0.0071,3.1550482 h -4.495525 -4.495526 l -0.0063,-0.9915866 -0.0063,-0.9915866 H 10 9.0024038 l -0.00628,0.9915866 -0.00628,0.9915866 H 4.4943255 -0.00120049 Z M 11.995192,2.5 V 1.9951923 H 10 8.0048077 V 2.5 3.0048077 H 10 11.995192 Z"
     id="path4443" />
  <path
     style="fill:none;stroke-width:9.61539e-05"
     d="M 0.00589521,7.8305288 C 0.01386359,4.2874502 -0.00160596,4.5857986 0.19628195,4.1587007 0.43640764,3.6404418 0.89611704,3.2484911 1.4707933,3.0720452 l 0.1758413,-0.05399 2.1814904,-0.00747 2.1814904,-0.00747 V 2.38997 c 0,-0.4669406 0.00912,-0.6572926 0.038237,-0.7982655 0.163794,-0.79298046 0.8071262,-1.41524462 1.60745,-1.55480939 0.3145101,-0.05484598 4.3737076,-0.05505131 4.6880356,-2.3714e-4 0.802764,0.13999034 1.444683,0.76045785 1.60881,1.55504653 0.02912,0.1409729 0.03824,0.3313249 0.03824,0.7982655 v 0.6131507 l 2.18149,0.00747 2.18149,0.00747 0.180289,0.054821 c 0.570344,0.1734274 1.003015,0.5367255 1.250167,1.0497195 0.220397,0.4574598 0.202254,0.1375473 0.210284,3.7079326 l 0.0071,3.1550482 h -4.495525 -4.495526 l -0.0063,-0.9915866 -0.0063,-0.9915866 H 10 9.0024038 l -0.00628,0.9915866 -0.00628,0.9915866 H 4.4943255 -0.00120049 Z M 11.995192,2.5 V 1.9951923 H 10 8.0048077 V 2.5 3.0048077 H 10 11.995192 Z"
     id="path4482" />
  <path
     style="fill:url(#linearGradient6664);stroke-width:0.0000961539;fill-opacity:1"
     d="M 0.00589521,7.8305288 C 0.01386359,4.2874502 -0.00160596,4.5857986 0.19628195,4.1587007 0.43640764,3.6404418 0.89611704,3.2484911 1.4707933,3.0720452 l 0.1758413,-0.05399 2.1814904,-0.00747 2.1814904,-0.00747 V 2.38997 c 0,-0.4669406 0.00912,-0.6572926 0.038237,-0.7982655 0.163794,-0.79298046 0.8071262,-1.41524462 1.60745,-1.55480939 0.3145101,-0.05484598 4.3737076,-0.05505131 4.6880356,-2.3714e-4 0.802764,0.13999034 1.444683,0.76045785 1.60881,1.55504653 0.02912,0.1409729 0.03824,0.3313249 0.03824,0.7982655 v 0.6131507 l 2.18149,0.00747 2.18149,0.00747 0.180289,0.054821 c 0.570344,0.1734274 1.003015,0.5367255 1.250167,1.0497195 0.220397,0.4574598 0.202254,0.1375473 0.210284,3.7079326 l 0.0071,3.1550482 h -4.495525 -4.495526 l -0.0063,-0.9915866 -0.0063,-0.9915866 H 10 9.0024038 l -0.00628,0.9915866 -0.00628,0.9915866 H 4.4943255 -0.00120049 Z M 11.995192,2.5 V 1.9951923 H 10 8.0048077 V 2.5 3.0048077 H 10 11.995192 Z"
     id="path4597" />
  <path
     style="fill:#0de5a8;fill-opacity:1;stroke-width:1.5625e-05"
     d="m 19.994923,8.3007813 c -0.005,-2.623679 -0.0105,-3.2969999 -0.0286,-3.5107422 l -0.0024,-0.02832 h 0.01005 c 0.01143,0 0.01149,1.988e-4 0.01897,0.064453 0.0034,0.029191 0.0049,0.6363074 0.0059,2.4023437 7.16e-4,1.2998047 8.41e-4,2.440625 2.77e-4,2.5351563 -5.65e-4,0.094531 -0.0024,-0.5637696 -0.0041,-1.4628906 z"
     id="path6705" />
  <path
     style="fill:#0de5a8;fill-opacity:1;stroke-width:8.83884e-05"
     d="M 2.6591982,19.965172 C 2.1293677,19.869029 1.6471902,19.56 1.3476052,19.124568 1.2416632,18.970586 1.1117535,18.679019 1.0563202,18.470811 l -0.04938,-0.185472 -0.007005,-3.14331 -0.007005,-3.143311 h 4.0002922 4.000292 v 1.005418 1.005417 h 1.0054174 1.0054172 v -1.005417 -1.005418 h 4.000224 4.000223 l -0.0064,3.143311 -0.0064,3.14331 -0.0583,0.211466 c -0.136955,0.496767 -0.435162,0.908402 -0.8547,1.1798 -0.21167,0.136928 -0.428519,0.224049 -0.690619,0.277462 -0.211782,0.04316 -0.319562,0.04377 -7.3929972,0.0418 -5.7840482,-0.0016 -7.208802,-0.0076 -7.3362626,-0.0307 z"
     id="path6744" />
</svg>
